<svg width="20" height="13" viewBox="0 0 20 13" fill="none" xmlns="http://www.w3.org/2000/svg">
<g clip-path="url(#clip0_5149_56653)">
<path d="M15.359 5.14062H4.62307C4.24649 5.14062 3.88532 5.28403 3.61903 5.53928C3.35275 5.79453 3.20312 6.14073 3.20312 6.50171C3.20312 6.86269 3.35275 7.20889 3.61903 7.46414C3.88532 7.71939 4.24649 7.86278 4.62307 7.86278H15.359C15.7356 7.86278 16.0967 7.71939 16.363 7.46414C16.6292 7.20889 16.7789 6.86269 16.7789 6.50171C16.7789 6.14073 16.6292 5.79453 16.363 5.53928C16.0967 5.28403 15.7356 5.14062 15.359 5.14062Z" fill="#EAEAEA"/>
<path d="M11.0673 10.2829H8.92363C8.7315 10.2738 8.53942 10.3022 8.35909 10.3664C8.17876 10.4306 8.01395 10.5293 7.87461 10.6564C7.73527 10.7836 7.6243 10.9365 7.5485 11.106C7.47269 11.2755 7.43359 11.4579 7.43359 11.6423C7.43359 11.8267 7.47269 12.0092 7.5485 12.1787C7.6243 12.3482 7.73527 12.5011 7.87461 12.6282C8.01395 12.7554 8.17876 12.854 8.35909 12.9182C8.53942 12.9824 8.7315 13.0109 8.92363 13.0018H11.0673C11.2595 13.0109 11.4516 12.9824 11.6319 12.9182C11.8122 12.854 11.977 12.7554 12.1164 12.6282C12.2557 12.5011 12.3667 12.3482 12.4425 12.1787C12.5183 12.0092 12.5574 11.8267 12.5574 11.6423C12.5574 11.4579 12.5183 11.2755 12.4425 11.106C12.3667 10.9365 12.2557 10.7836 12.1164 10.6564C11.977 10.5293 11.8122 10.4306 11.6319 10.3664C11.4516 10.3022 11.2595 10.2738 11.0673 10.2829Z" fill="#EAEAEA"/>
<path d="M18.5764 0.0016599H1.41626C1.05226 0.0189077 0.709054 0.169662 0.457792 0.422713C0.206531 0.675764 0.0664062 1.01174 0.0664062 1.36108C0.0664062 1.71043 0.206531 2.0464 0.457792 2.29945C0.709054 2.5525 1.05226 2.70326 1.41626 2.72051H18.5764C18.7685 2.72961 18.9606 2.7012 19.1409 2.63699C19.3212 2.57278 19.4861 2.47412 19.6255 2.34699C19.7648 2.21986 19.8757 2.06691 19.9515 1.89744C20.0273 1.72796 20.0664 1.54548 20.0664 1.36108C20.0664 1.17669 20.0273 0.994207 19.9515 0.82473C19.8757 0.655252 19.7648 0.502308 19.6255 0.375178C19.4861 0.248049 19.3212 0.149388 19.1409 0.0851796C18.9606 0.0209712 18.7685 -0.0074441 18.5764 0.0016599Z" fill="#EAEAEA"/>
</g>
<defs>
<clipPath id="clip0_5149_56653">
<rect width="20" height="13" fill="white"/>
</clipPath>
</defs>
</svg>
