<svg id="Layer_1" data-name="Layer 1" xmlns="http://www.w3.org/2000/svg" viewBox="0 0 60.6 46.2"><defs><style>.cls-1{fill:#606060;}</style></defs><title>Artboard 19</title><path class="cls-1" d="M12,18.76V14.05a2.44,2.44,0,0,0-1.61-2.36A2.41,2.41,0,0,0,7.21,14v4.8H2.49A2.44,2.44,0,0,0,.13,20.38,2.41,2.41,0,0,0,2.4,23.57H7.21v4.71a2.47,2.47,0,0,0,1.61,2.37A2.42,2.42,0,0,0,12,28.37v-4.8h4.72A2.46,2.46,0,0,0,19.09,22a2.42,2.42,0,0,0-2.28-3.2Z"/><path class="cls-1" d="M36.88,27.73A28.4,28.4,0,0,0,14,39.21a4.37,4.37,0,0,0,3.5,7H56.22a4.38,4.38,0,0,0,3.51-7A28.42,28.42,0,0,0,36.88,27.73Z"/><path class="cls-1" d="M36.88,0A11.81,11.81,0,1,0,48.69,11.81,11.8,11.8,0,0,0,36.88,0Zm-2,7.63a5.29,5.29,0,0,0-2.56,3.84,1.49,1.49,0,0,1-1.48,1.28h-.22A1.51,1.51,0,0,1,29.39,11a8.25,8.25,0,0,1,4.2-6.09,1.5,1.5,0,0,1,1.32,2.69Z"/></svg>