<svg width="32" height="31" viewBox="0 0 32 31" fill="none" xmlns="http://www.w3.org/2000/svg">
<g filter="url(#filter0_d_1_1142)">
<path d="M10.0488 14.7649L17.7004 20.5568C18.5968 20.1945 19.3827 19.6038 19.98 18.8435L11.1458 12.1572C10.5556 12.9139 10.177 13.8138 10.0488 14.7649" fill="#A83063"/>
<path d="M11.1445 12.1468L19.9788 18.8331C20.5706 18.0747 20.9499 17.1726 21.0778 16.2192L13.4262 10.4355C12.5275 10.7969 11.7404 11.3894 11.1445 12.1531" fill="#BA474D"/>
<path d="M13.4277 10.4205L21.0793 16.2187C21.2085 15.2596 21.0797 14.2834 20.7062 13.3906C20.3327 12.4978 19.728 11.7207 18.9544 11.1393C18.1751 10.5495 17.2555 10.173 16.2864 10.047C15.3172 9.92092 14.332 10.0497 13.4277 10.4205" fill="#CF6D38"/>
<path d="M12.1735 19.8483C12.9539 20.436 13.8739 20.8104 14.843 20.9346C15.812 21.0588 16.7967 20.9285 17.7001 20.5567L10.0485 14.7647C9.91968 15.7244 10.0486 16.7011 10.4221 17.5945C10.7955 18.4879 11.4 19.2658 12.1735 19.8483" fill="#942657"/>
<path opacity="0.41" d="M12.4013 13.9512C12.4552 13.8716 12.4814 13.7765 12.4757 13.6805C12.47 13.5846 12.4329 13.4931 12.37 13.4205C12.3277 13.3724 12.2756 13.3339 12.2172 13.3076C12.1588 13.2813 12.0955 13.2678 12.0315 13.2679C11.9249 13.267 11.8217 13.3049 11.741 13.3745C11.7109 13.3994 11.6842 13.4282 11.6616 13.4602C11.26 14.0665 11.039 14.7744 11.0244 15.5016C11.0185 15.7706 11.0409 16.0395 11.0912 16.3039C11.1121 16.406 11.1681 16.4976 11.2493 16.5628C11.3306 16.628 11.4321 16.6629 11.5363 16.6612C11.5647 16.6643 11.5935 16.6643 11.6219 16.6612L11.6679 16.6508C11.7571 16.6229 11.8351 16.5674 11.8907 16.4923C11.9463 16.4171 11.9765 16.3263 11.9771 16.2329C11.9802 16.2079 11.9802 16.1826 11.9771 16.1577C11.8329 15.3971 11.9902 14.6103 12.4159 13.9637L12.4013 13.9512ZM13.912 12.3402C13.8834 12.2518 13.8275 12.1747 13.7525 12.1199C13.6774 12.0652 13.587 12.0355 13.4941 12.0352C13.4482 12.0353 13.4025 12.0416 13.3583 12.054L13.304 12.0749L13.1744 12.1396C13.1227 12.1655 13.0766 12.2015 13.0389 12.2453C13.0012 12.2892 12.9725 12.3401 12.9546 12.3951C12.9368 12.4501 12.93 12.5081 12.9347 12.5658C12.9394 12.6234 12.9556 12.6796 12.9822 12.7309C12.998 12.7607 13.0169 12.7887 13.0386 12.8145C13.0806 12.8637 13.1329 12.9032 13.1917 12.9303C13.2505 12.9574 13.3144 12.9713 13.3792 12.9712C13.452 12.973 13.524 12.9557 13.5881 12.9211L13.6884 12.8751C13.7859 12.8298 13.8633 12.7504 13.9061 12.6518C13.9488 12.5532 13.9539 12.4423 13.9203 12.3402" fill="white"/>
</g>
<defs>
<filter id="filter0_d_1_1142" x="0" y="0" width="31.1281" height="30.9802" filterUnits="userSpaceOnUse" color-interpolation-filters="sRGB">
<feFlood flood-opacity="0" result="BackgroundImageFix"/>
<feColorMatrix in="SourceAlpha" type="matrix" values="0 0 0 0 0 0 0 0 0 0 0 0 0 0 0 0 0 0 127 0" result="hardAlpha"/>
<feOffset/>
<feGaussianBlur stdDeviation="5"/>
<feColorMatrix type="matrix" values="0 0 0 0 0 0 0 0 0 0 0 0 0 0 0 0 0 0 0.4 0"/>
<feBlend mode="normal" in2="BackgroundImageFix" result="effect1_dropShadow_1_1142"/>
<feBlend mode="normal" in="SourceGraphic" in2="effect1_dropShadow_1_1142" result="shape"/>
</filter>
</defs>
</svg>
