<svg width="32" height="28" viewBox="0 0 32 28" fill="none" xmlns="http://www.w3.org/2000/svg">
<rect x="1" y="1" width="30" height="26" rx="13" stroke="#939393" stroke-width="2"/>
<path d="M22.7763 21.5781C22.377 21.8472 21.9295 22.0359 21.4585 22.1336C21.9295 22.0359 22.377 21.8472 22.7763 21.5781V21.5781Z" fill="#EAEAEA"/>
<path d="M17.6621 20.5635C17.7313 20.6661 17.8035 20.7658 17.8817 20.8654C17.8035 20.7688 17.7313 20.6691 17.6621 20.5635Z" fill="#EAEAEA"/>
<path d="M23.5591 16.162C23.4087 15.9795 23.2415 15.8117 23.0596 15.6609C23.2415 15.8117 23.4087 15.9795 23.5591 16.162V16.162Z" fill="#EAEAEA"/>
<path d="M17.8726 20.8628C18.0229 21.0453 18.1901 21.2131 18.372 21.364C18.1901 21.2131 18.0229 21.0453 17.8726 20.8628V20.8628Z" fill="#EAEAEA"/>
<path d="M19.9729 22.1336C19.5027 22.0365 19.0561 21.8477 18.6582 21.5781C19.0561 21.8477 19.5027 22.0365 19.9729 22.1336V22.1336Z" fill="#EAEAEA"/>
<path d="M22.777 15.4464C22.587 15.3192 22.3855 15.2101 22.1753 15.1204V15.1204C22.3855 15.2101 22.587 15.3192 22.777 15.4464Z" fill="#EAEAEA"/>
<path d="M23.5586 16.1619C24.1011 16.8242 24.3977 17.6549 24.3977 18.5122C24.3977 19.3695 24.1011 20.2003 23.5586 20.8626C24.1011 20.2003 24.3977 19.3695 24.3977 18.5122C24.3977 17.6549 24.1011 16.8242 23.5586 16.1619V16.1619Z" fill="#EAEAEA"/>
<path d="M23.0596 21.364C23.2415 21.2131 23.4087 21.0453 23.5591 20.8628C23.4087 21.0453 23.2415 21.2131 23.0596 21.364V21.364Z" fill="#EAEAEA"/>
<path d="M14.8518 19.2628C14.6398 19.262 14.4367 19.1771 14.2868 19.0267C14.1369 18.8762 14.0523 18.6724 14.0515 18.4597V16.9713C14.0523 16.7588 14.137 16.5553 14.287 16.4054C14.437 16.2554 14.6401 16.1712 14.8518 16.1712H16.3351C16.4679 16.1712 16.5985 16.2055 16.7142 16.2709C16.9484 15.8539 17.2458 15.476 17.5957 15.1508C17.5679 15.0733 17.5536 14.9916 17.5536 14.9093V13.4239C17.5536 13.2109 17.6379 13.0066 17.788 12.856C17.9381 12.7054 18.1417 12.6208 18.3539 12.6208H19.8341C20.0464 12.6208 20.2499 12.7054 20.4 12.856C20.5501 13.0066 20.6344 13.2109 20.6344 13.4239V13.916H20.7157C21.214 13.9179 21.7088 14.0005 22.1809 14.1605V9.52321C22.1676 9.14575 22.0061 8.78889 21.7316 8.53043C21.4571 8.27198 21.0919 8.13289 20.7157 8.14348H19.5122V7.6393C19.5043 7.41293 19.4076 7.19888 19.243 7.04389C19.0784 6.8889 18.8593 6.80556 18.6337 6.81208H18.6066C18.4944 6.80804 18.3825 6.82624 18.2773 6.86564C18.1721 6.90504 18.0756 6.96487 17.9935 7.0417C17.9113 7.11852 17.8451 7.21085 17.7985 7.31339C17.752 7.41593 17.726 7.52668 17.7221 7.6393V8.14348H13.4618V7.6393C13.454 7.41293 13.3572 7.19888 13.1926 7.04389C13.028 6.8889 12.809 6.80556 12.5833 6.81208H12.5472C12.3203 6.80392 12.0994 6.88643 11.933 7.04151C11.7666 7.1966 11.6683 7.41158 11.6597 7.6393V8.14348H10.4562C10.2702 8.13785 10.085 8.1691 9.91112 8.23544C9.73721 8.30178 9.57805 8.40191 9.44278 8.53008C9.3075 8.65826 9.19871 8.81196 9.12274 8.98237C9.04677 9.15279 9.00506 9.33658 9 9.52321V19.1843C9.01179 19.5617 9.17243 19.9191 9.4466 20.1778C9.72076 20.4365 10.0861 20.5754 10.4622 20.564H16.6089C16.4042 20.1539 16.2622 19.7153 16.1877 19.2628H14.8518ZM17.1354 14.9093C17.1346 15.122 17.05 15.3258 16.9001 15.4762C16.7502 15.6267 16.5471 15.7115 16.3351 15.7123H14.8518C14.6398 15.7115 14.4367 15.6267 14.2868 15.4762C14.1369 15.3258 14.0523 15.122 14.0515 14.9093V13.4239C14.0523 13.2111 14.1369 13.0073 14.2868 12.8569C14.4367 12.7065 14.6398 12.6216 14.8518 12.6208H16.3351C16.5471 12.6216 16.7502 12.7065 16.9001 12.8569C17.05 13.0073 17.1346 13.2111 17.1354 13.4239V14.9093ZM10.8955 10.6101H20.2915C20.404 10.6101 20.5119 10.6549 20.5914 10.7348C20.671 10.8146 20.7157 10.9229 20.7157 11.0358C20.7157 11.1487 20.671 11.2569 20.5914 11.3368C20.5119 11.4166 20.404 11.4615 20.2915 11.4615H10.8955C10.783 11.4615 10.675 11.4166 10.5955 11.3368C10.5159 11.2569 10.4713 11.1487 10.4713 11.0358C10.4713 10.9229 10.5159 10.8146 10.5955 10.7348C10.675 10.6549 10.783 10.6101 10.8955 10.6101V10.6101ZM13.6032 18.4597C13.6032 18.6727 13.5189 18.877 13.3689 19.0276C13.2188 19.1782 13.0152 19.2628 12.803 19.2628H11.3437C11.1315 19.2628 10.9279 19.1782 10.7779 19.0276C10.6278 18.877 10.5435 18.6727 10.5435 18.4597V16.9713C10.5443 16.7588 10.6289 16.5553 10.7789 16.4054C10.9289 16.2554 11.132 16.1712 11.3437 16.1712H12.824C13.0357 16.1712 13.2388 16.2554 13.3888 16.4054C13.5388 16.5553 13.6235 16.7588 13.6243 16.9713L13.6032 18.4597ZM13.6032 14.9093C13.6032 15.1222 13.5189 15.3265 13.3689 15.4771C13.2188 15.6277 13.0152 15.7123 12.803 15.7123H11.3437C11.1315 15.7123 10.9279 15.6277 10.7779 15.4771C10.6278 15.3265 10.5435 15.1222 10.5435 14.9093V13.4239C10.5435 13.2109 10.6278 13.0066 10.7779 12.856C10.9279 12.7054 11.1315 12.6208 11.3437 12.6208H12.824C13.0362 12.6208 13.2399 12.7054 13.3899 12.856C13.54 13.0066 13.6243 13.2109 13.6243 13.4239L13.6032 14.9093Z" fill="#EAEAEA"/>
<path d="M23.5587 16.1622C23.4084 15.9796 23.2411 15.8118 23.0592 15.661C22.9689 15.5855 22.8727 15.5131 22.7764 15.4466C22.5863 15.3195 22.3849 15.2103 22.1747 15.1206V15.1206C21.9424 15.0197 21.7005 14.9429 21.4526 14.8911C20.9623 14.7905 20.4567 14.7905 19.9663 14.8911C19.7284 14.9416 19.4957 15.0144 19.2714 15.1085C19.0546 15.2013 18.847 15.3145 18.6516 15.4466C18.5523 15.5131 18.459 15.5855 18.3658 15.661C18.3477 15.6761 18.3326 15.6942 18.3116 15.7093C17.7204 16.2189 17.3063 16.9041 17.1292 17.6657V17.6657C17.0615 17.9423 17.0271 18.2261 17.0269 18.511C17.0269 18.6137 17.0269 18.7133 17.0419 18.8129C17.0894 19.4378 17.2966 20.0399 17.6436 20.561V20.561C17.7128 20.6636 17.785 20.7632 17.8633 20.8629C18.0136 21.0454 18.1809 21.2132 18.3628 21.364C18.456 21.4395 18.5493 21.512 18.6486 21.5784C19.0464 21.848 19.4931 22.0367 19.9633 22.1339C20.4536 22.2345 20.9593 22.2345 21.4496 22.1339C21.9206 22.0361 22.3681 21.8475 22.7674 21.5784C22.8637 21.512 22.9599 21.4395 23.0502 21.364C23.2321 21.2132 23.3993 21.0454 23.5497 20.8629C24.0922 20.2006 24.3887 19.3698 24.3887 18.5125C24.3887 17.6552 24.0922 16.8245 23.5497 16.1622H23.5587ZM21.4797 16.6362C21.5558 16.6598 21.6196 16.7129 21.6568 16.7836C21.6941 16.8544 21.7018 16.9371 21.6783 17.0135L21.0766 19.0001C21.0567 19.0637 21.0164 19.119 20.962 19.1572C20.9075 19.1954 20.8421 19.2145 20.7757 19.2114C20.7537 19.2144 20.7314 19.2144 20.7094 19.2114L19.3947 18.9095C19.3169 18.8915 19.2494 18.8432 19.2071 18.7753C19.1648 18.7073 19.1511 18.6253 19.169 18.5472C19.187 18.4692 19.2351 18.4015 19.3028 18.359C19.3705 18.3165 19.4523 18.3028 19.5301 18.3208L20.5711 18.5623L21.0976 16.8445C21.1082 16.8051 21.1267 16.7684 21.1519 16.7364C21.1771 16.7044 21.2085 16.6779 21.2443 16.6584C21.28 16.6389 21.3193 16.6269 21.3597 16.6231C21.4002 16.6193 21.441 16.6237 21.4797 16.6362V16.6362Z" fill="#EAEAEA"/>
</svg>
