<svg width="19" height="21" viewBox="0 0 19 21" fill="none" xmlns="http://www.w3.org/2000/svg">
<path d="M9.19047 7.46922C8.8543 7.55365 8.60217 7.84915 8.68621 8.22908C8.77025 8.5668 9.0644 8.82008 9.4426 8.73565C9.82079 8.65122 10.0309 8.35572 9.94686 7.97579C9.86281 7.59587 9.52664 7.42701 9.19047 7.46922Z" fill="#EAEAEA"/>
<path d="M7.13173 8.56647C7.08971 8.60868 5.78704 9.57961 5.87108 11.437C5.87108 11.7748 6.16524 12.0703 6.54343 12.0703C6.58545 12.0703 6.62747 12.0703 6.62747 12.0703C6.92162 12.028 7.17375 11.7325 7.13173 11.437C7.08971 10.255 7.8461 9.66404 7.88812 9.62183C8.18227 9.41075 8.22429 9.03082 8.01418 8.73532C7.80408 8.43982 7.38386 8.3554 7.13173 8.56647Z" fill="#EAEAEA"/>
<path d="M18.5195 4.7257C17.1749 4.59905 12.3844 3.45927 10.3253 0.630906C9.94715 0.124334 9.19076 0.124334 8.85459 0.630906C6.83756 3.45927 2.0471 4.59905 0.660391 4.7257C0.492305 4.76791 0.324219 4.93677 0.324219 5.10562C0.534326 15.1526 9.48491 20.8094 9.48491 20.8094H9.69502C9.69502 20.8094 18.6876 15.1526 18.8557 5.10562C18.8557 4.93677 18.7297 4.76791 18.5195 4.7257ZM10.6195 15.3637C8.22427 16.1236 5.66095 14.8149 4.90457 12.4087C4.14818 10.0025 5.45085 7.42741 7.84607 6.66755C10.2413 5.9077 12.8046 7.21634 13.561 9.62256C14.3594 11.9866 13.0567 14.5616 10.6195 15.3637ZM15.2839 6.66755L14.1913 6.4987C14.1493 6.4987 14.1493 6.4987 14.1073 6.54091L13.3089 7.30077C13.2669 7.34298 13.1408 7.30077 13.1828 7.21634L13.3509 6.11877C13.3509 6.07655 13.3509 6.07655 13.3089 6.03434L12.5525 5.23227C12.5105 5.19005 12.5525 5.06341 12.6365 5.10562L13.7291 5.27448C13.7711 5.27448 13.7711 5.27448 13.8131 5.23227L14.6115 4.47241C14.6536 4.43019 14.7796 4.47241 14.7376 4.55684L14.5695 5.65441C14.5695 5.69662 14.5695 5.69662 14.6115 5.73884L15.3679 6.54091C15.4099 6.58313 15.3679 6.66755 15.2839 6.66755Z" fill="#EAEAEA"/>
</svg>
