<svg width="157" height="50" viewBox="0 0 157 50" fill="none" xmlns="http://www.w3.org/2000/svg">
<path d="M4.352 11.352H10.52V8.352H4.352V4.416H11.384V1.464H1.016V18H11.6V15.048H4.352V11.352ZM20.6583 6.504C19.5543 6.504 17.7783 7.176 17.2983 8.688V6.792H14.1543V18H17.2983V12.12C17.2983 10.08 18.6903 9.48 19.8183 9.48C20.8983 9.48 21.9543 10.272 21.9543 12.024V18H25.0983V11.856C25.1223 8.496 23.5863 6.504 20.6583 6.504ZM36.5471 8.28C35.8031 7.128 34.3631 6.504 32.9231 6.504C29.7071 6.504 27.4511 8.928 27.4511 12.408C27.4511 15.888 29.7551 18.288 32.8511 18.288C34.3631 18.288 35.8031 17.544 36.5471 16.392V18H39.6911V6.792H36.5471V8.28ZM33.5471 15.36C31.8911 15.36 30.6671 13.968 30.6671 12.408C30.6671 10.776 31.8911 9.432 33.5231 9.432C35.0831 9.432 36.4511 10.704 36.4511 12.408C36.4511 14.016 35.1311 15.36 33.5471 15.36ZM49.6093 6.504C48.3372 6.504 46.8013 7.008 46.0093 8.136V0.696H42.8652V18H46.0093V16.608C46.8013 17.76 48.3372 18.288 49.6093 18.288C52.4893 18.288 55.1053 15.984 55.1053 12.384C55.1053 8.784 52.4893 6.504 49.6093 6.504ZM49.0093 15.36C47.4733 15.36 46.1053 14.088 46.1053 12.384C46.1053 10.656 47.5453 9.432 49.0093 9.432C50.5933 9.432 51.8893 10.728 51.8893 12.384C51.8893 14.016 50.5933 15.36 49.0093 15.36ZM60.7514 18V0.696H57.6074V18H60.7514ZM75.0241 12.216C75.0241 8.784 72.4081 6.504 69.1921 6.504C66.0001 6.504 63.2401 8.784 63.2401 12.408C63.2401 15.864 65.7601 18.288 69.2161 18.288C71.1841 18.288 73.1281 17.448 74.1841 16.032L72.3601 14.184C71.6641 14.976 70.5601 15.504 69.4081 15.504C67.9201 15.504 66.8641 14.736 66.5281 13.416H74.9521C75.0001 12.912 75.0241 12.528 75.0241 12.216ZM66.5281 11.376C66.8641 9.864 67.9681 9.216 69.2641 9.216C70.6801 9.216 71.7601 10.056 71.8561 11.376H66.5281ZM2.92 35.22H0.86V49H8.46V47.12H2.92V35.22ZM14.428 49.24C17.088 49.24 19.348 47.28 19.348 44.32C19.348 41.36 17.088 39.42 14.428 39.42C11.768 39.42 9.52797 41.36 9.52797 44.32C9.52797 47.28 11.768 49.24 14.428 49.24ZM14.428 47.4C12.828 47.4 11.488 46.14 11.488 44.32C11.488 42.52 12.828 41.26 14.428 41.26C16.028 41.26 17.388 42.52 17.388 44.32C17.388 46.14 16.028 47.4 14.428 47.4ZM26.0909 49.24C27.6109 49.24 28.9109 48.62 29.7309 47.64L28.4309 46.42C27.8909 47.02 27.0709 47.4 26.1309 47.4C24.3909 47.4 23.0109 46.1 23.0109 44.32C23.0109 42.54 24.3909 41.26 26.1309 41.26C27.0709 41.26 27.8909 41.64 28.4309 42.24L29.7309 41.02C28.9109 40.04 27.6109 39.42 26.0909 39.42C23.3909 39.42 21.0509 41.36 21.0509 44.32C21.0509 47.28 23.3909 49.24 26.0909 49.24ZM38.8919 41.06C38.2919 40 37.0119 39.42 35.6519 39.42C33.0119 39.42 31.0319 41.54 31.0319 44.32C31.0319 47.2 33.1319 49.24 35.5719 49.24C37.0119 49.24 38.2919 48.5 38.8919 47.42V49H40.8519V39.66H38.8919V41.06ZM35.9119 47.4C34.2719 47.4 33.0119 46 33.0119 44.32C33.0119 42.66 34.2719 41.26 35.8719 41.26C37.3719 41.26 38.8719 42.52 38.8719 44.32C38.8719 46.08 37.4719 47.4 35.9119 47.4ZM46.5398 39.66V36.16H44.5798V39.66H42.8998V41.3H44.5798V49H46.5398V41.3H48.5398V39.66H46.5398ZM51.3814 37.52C52.1214 37.52 52.7214 36.98 52.7214 36.26C52.7214 35.54 52.1214 35 51.3814 35C50.6614 35 50.0414 35.54 50.0414 36.26C50.0414 36.98 50.6614 37.52 51.3814 37.52ZM52.3614 49V39.66H50.4014V49H52.3614ZM59.6038 49.24C62.2638 49.24 64.5238 47.28 64.5238 44.32C64.5238 41.36 62.2638 39.42 59.6038 39.42C56.9438 39.42 54.7038 41.36 54.7038 44.32C54.7038 47.28 56.9438 49.24 59.6038 49.24ZM59.6038 47.4C58.0038 47.4 56.6638 46.14 56.6638 44.32C56.6638 42.52 58.0038 41.26 59.6038 41.26C61.2038 41.26 62.5638 42.52 62.5638 44.32C62.5638 46.14 61.2038 47.4 59.6038 47.4ZM71.8467 39.42C70.8467 39.42 69.3467 39.94 68.8067 41.1V39.66H66.8467V49H68.8067V43.98C68.8067 42.04 70.2867 41.34 71.5067 41.34C72.7067 41.34 73.6267 42.26 73.6267 43.78V49H75.5867V43.66C75.6067 41 74.2067 39.42 71.8467 39.42ZM87.8102 49.24C90.5902 49.24 92.4702 47.38 92.4702 45.08C92.4702 43.06 91.0102 41.88 88.6902 41.26L86.9502 40.78C85.2102 40.32 85.0702 39.42 85.0702 38.98C85.0702 37.72 86.2302 36.86 87.5302 36.86C88.9502 36.86 89.9702 37.76 89.9702 39.06H92.0102C92.0102 36.54 90.0702 34.98 87.5902 34.98C85.1502 34.98 83.0102 36.6 83.0102 39.02C83.0102 40.16 83.4902 41.9 86.4302 42.64L88.1902 43.08C89.3102 43.38 90.4102 43.96 90.4102 45.18C90.4102 46.32 89.4502 47.36 87.8102 47.36C86.0902 47.36 84.9902 46.22 84.9502 45.04H82.9102C82.9102 47.26 84.8702 49.24 87.8102 49.24ZM103.735 44.28C103.735 41.34 101.715 39.42 99.0555 39.42C96.3955 39.42 94.2355 41.34 94.2355 44.3C94.2355 47.26 96.3555 49.24 99.0555 49.24C100.835 49.24 102.515 48.4 103.335 46.84L101.775 46.06C101.255 46.92 100.235 47.42 99.1355 47.42C97.6355 47.42 96.5155 46.64 96.2555 45.12H103.695C103.715 44.82 103.735 44.54 103.735 44.28ZM96.2755 43.54C96.5555 41.98 97.6355 41.24 99.0755 41.24C100.515 41.24 101.575 42.08 101.775 43.54H96.2755ZM110.626 39.42C109.426 39.42 108.486 40.12 108.006 41.76V39.66H106.026V49H108.006V45.64C108.006 43.12 108.806 41.3 110.506 41.3C110.886 41.3 111.366 41.38 111.886 41.62L112.226 39.76C111.926 39.58 111.266 39.42 110.626 39.42ZM117.478 46.46L114.758 39.66H112.658L116.558 49H118.418L122.318 39.66H120.198L117.478 46.46ZM124.995 37.52C125.735 37.52 126.335 36.98 126.335 36.26C126.335 35.54 125.735 35 124.995 35C124.275 35 123.655 35.54 123.655 36.26C123.655 36.98 124.275 37.52 124.995 37.52ZM125.975 49V39.66H124.015V49H125.975ZM133.337 49.24C134.857 49.24 136.157 48.62 136.977 47.64L135.677 46.42C135.137 47.02 134.317 47.4 133.377 47.4C131.637 47.4 130.257 46.1 130.257 44.32C130.257 42.54 131.637 41.26 133.377 41.26C134.317 41.26 135.137 41.64 135.677 42.24L136.977 41.02C136.157 40.04 134.857 39.42 133.337 39.42C130.637 39.42 128.297 41.36 128.297 44.32C128.297 47.28 130.637 49.24 133.337 49.24ZM147.798 44.28C147.798 41.34 145.778 39.42 143.118 39.42C140.458 39.42 138.298 41.34 138.298 44.3C138.298 47.26 140.418 49.24 143.118 49.24C144.898 49.24 146.578 48.4 147.398 46.84L145.838 46.06C145.318 46.92 144.298 47.42 143.198 47.42C141.698 47.42 140.578 46.64 140.318 45.12H147.758C147.778 44.82 147.798 44.54 147.798 44.28ZM140.338 43.54C140.618 41.98 141.698 41.24 143.138 41.24C144.578 41.24 145.638 42.08 145.838 43.54H140.338ZM152.969 49.24C154.889 49.24 156.649 48.16 156.649 46.38C156.649 45.38 156.209 44.14 154.209 43.64L152.789 43.3C152.209 43.16 151.669 42.84 151.669 42.26C151.669 41.62 152.229 41.08 153.049 41.08C153.749 41.08 154.449 41.54 154.449 42.22H156.329C156.329 40.26 154.609 39.42 153.009 39.42C151.069 39.42 149.689 40.68 149.689 42.2C149.689 43.58 150.489 44.48 152.229 44.94L153.489 45.24C154.189 45.4 154.689 45.72 154.689 46.34C154.689 47.04 154.029 47.58 152.949 47.58C151.889 47.58 151.229 46.94 151.229 46.2H149.409C149.449 48.16 151.229 49.24 152.969 49.24Z" fill="white"/>
</svg>
