<svg width="43" height="43" viewBox="0 0 43 43" fill="none" xmlns="http://www.w3.org/2000/svg">
<g filter="url(#filter0_d_1529_5071)">
<path fill-rule="evenodd" clip-rule="evenodd" d="M21.6123 35.2245C29.1301 35.2245 35.2245 29.1301 35.2245 21.6123C35.2245 14.0944 29.1301 8 21.6123 8C14.0944 8 8 14.0944 8 21.6123C8 29.1301 14.0944 35.2245 21.6123 35.2245ZM17.3951 13.1806V13.1737C17.3474 13.032 17.2682 12.9016 17.1626 12.7911C17.057 12.6805 16.9276 12.5925 16.7829 12.5328C16.6382 12.4731 16.4817 12.4432 16.3237 12.445C16.1657 12.4468 16.01 12.4803 15.8669 12.5433C15.7585 12.5914 15.6502 12.6424 15.5434 12.6947C15.3952 12.7671 15.2664 12.87 15.1664 12.9958C15.0664 13.1215 14.9978 13.2668 14.9657 13.4209C14.9336 13.575 14.9389 13.7339 14.9811 13.8858C15.0234 14.0377 15.1014 14.1787 15.2096 14.2983C15.3713 14.4782 15.5931 14.6013 15.8388 14.6473C16.0845 14.6933 16.3395 14.6595 16.5622 14.5516C16.6441 14.5103 16.7276 14.4717 16.811 14.4346C17.0526 14.3266 17.2446 14.1404 17.3519 13.9101C17.4592 13.6797 17.4745 13.4207 17.3951 13.1806ZM10.655 22.9583C10.2273 20.5443 10.6949 18.0483 11.9603 15.9914C12.047 15.8496 12.164 15.7314 12.3018 15.6464C12.4396 15.5615 12.5943 15.5122 12.7534 15.5025C12.9125 15.4928 13.0715 15.523 13.2175 15.5906C13.3636 15.6583 13.4926 15.7615 13.594 15.8919C13.7359 16.0711 13.8195 16.2941 13.8323 16.5277C13.8451 16.7614 13.7864 16.9932 13.665 17.1886C12.6945 18.7751 12.3356 20.6966 12.6626 22.5559C12.7084 22.8147 12.6632 23.0824 12.5356 23.3083C12.4079 23.5342 12.2066 23.7025 11.9697 23.7815C11.8324 23.829 11.6872 23.845 11.5436 23.8283C11.4001 23.8117 11.2615 23.7628 11.1371 23.6849C11.0127 23.6071 10.9054 23.502 10.8223 23.3767C10.7392 23.2514 10.6822 23.1087 10.655 22.9583Z" fill="#15D078"/>
</g>
<defs>
<filter id="filter0_d_1529_5071" x="0.718487" y="0.718487" width="41.7875" height="41.7876" filterUnits="userSpaceOnUse" color-interpolation-filters="sRGB">
<feFlood flood-opacity="0" result="BackgroundImageFix"/>
<feColorMatrix in="SourceAlpha" type="matrix" values="0 0 0 0 0 0 0 0 0 0 0 0 0 0 0 0 0 0 127 0" result="hardAlpha"/>
<feOffset/>
<feGaussianBlur stdDeviation="3.64076"/>
<feComposite in2="hardAlpha" operator="out"/>
<feColorMatrix type="matrix" values="0 0 0 0 0 0 0 0 0 0 0 0 0 0 0 0 0 0 0.25 0"/>
<feBlend mode="normal" in2="BackgroundImageFix" result="effect1_dropShadow_1529_5071"/>
<feBlend mode="normal" in="SourceGraphic" in2="effect1_dropShadow_1529_5071" result="shape"/>
</filter>
</defs>
</svg>
