<svg width="33" height="28" viewBox="0 0 33 28" fill="none" xmlns="http://www.w3.org/2000/svg">
<rect x="1" y="1" width="31" height="26" rx="13" stroke="#939393" stroke-width="2"/>
<g clip-path="url(#clip0_1_3480)">
<path d="M20.5197 13.953H12.4678C12.1854 13.953 11.9145 14.0633 11.7148 14.2597C11.515 14.456 11.4028 14.7223 11.4028 15C11.4028 15.2777 11.515 15.544 11.7148 15.7403C11.9145 15.9367 12.1854 16.047 12.4678 16.047H20.5197C20.8022 16.047 21.073 15.9367 21.2727 15.7403C21.4724 15.544 21.5846 15.2777 21.5846 15C21.5846 14.7223 21.4724 14.456 21.2727 14.2597C21.073 14.0633 20.8022 13.953 20.5197 13.953Z" fill="#EAEAEA"/>
<path d="M17.3015 17.9086H15.6937C15.5496 17.9016 15.4055 17.9235 15.2703 17.9729C15.135 18.0223 15.0114 18.0982 14.9069 18.1959C14.8024 18.2937 14.7192 18.4114 14.6624 18.5418C14.6055 18.6721 14.5762 18.8125 14.5762 18.9543C14.5762 19.0962 14.6055 19.2365 14.6624 19.3669C14.7192 19.4973 14.8024 19.6149 14.9069 19.7127C15.0114 19.8105 15.135 19.8864 15.2703 19.9358C15.4055 19.9852 15.5496 20.0071 15.6937 20H17.3015C17.4456 20.0071 17.5896 19.9852 17.7249 19.9358C17.8601 19.8864 17.9837 19.8105 18.0882 19.7127C18.1928 19.6149 18.276 19.4973 18.3328 19.3669C18.3897 19.2365 18.419 19.0962 18.419 18.9543C18.419 18.8125 18.3897 18.6721 18.3328 18.5418C18.276 18.4114 18.1928 18.2937 18.0882 18.1959C17.9837 18.0982 17.8601 18.0223 17.7249 17.9729C17.5896 17.9235 17.4456 17.9016 17.3015 17.9086V17.9086Z" fill="#EAEAEA"/>
<path d="M22.9323 10.0001H10.0622C9.78919 10.0133 9.53179 10.1293 9.34334 10.3239C9.1549 10.5186 9.0498 10.777 9.0498 11.0458C9.0498 11.3145 9.1549 11.5729 9.34334 11.7676C9.53179 11.9622 9.78919 12.0782 10.0622 12.0915H22.9323C23.0764 12.0985 23.2204 12.0766 23.3557 12.0272C23.4909 11.9778 23.6146 11.9019 23.7191 11.8042C23.8236 11.7064 23.9068 11.5887 23.9636 11.4583C24.0205 11.328 24.0498 11.1876 24.0498 11.0458C24.0498 10.9039 24.0205 10.7636 23.9636 10.6332C23.9068 10.5028 23.8236 10.3852 23.7191 10.2874C23.6146 10.1896 23.4909 10.1137 23.3557 10.0643C23.2204 10.0149 23.0764 9.99305 22.9323 10.0001V10.0001Z" fill="#EAEAEA"/>
</g>
<defs>
<clipPath id="clip0_1_3480">
<rect width="15" height="10" fill="white" transform="translate(9 10)"/>
</clipPath>
</defs>
</svg>
