<svg width="4" height="3" viewBox="0 0 4 3" fill="none" xmlns="http://www.w3.org/2000/svg">
<path d="M2.23528 0.116211C1.98532 0.116211 1.74097 0.18991 1.53313 0.327981C1.3253 0.466051 1.1633 0.662284 1.06765 0.891888C0.971992 1.12149 0.946952 1.37414 0.995717 1.61789C1.04448 1.86163 1.16485 2.08554 1.3416 2.26127C1.51835 2.437 1.74355 2.55668 1.98871 2.60516C2.23387 2.65364 2.48796 2.62875 2.71889 2.53364C2.94983 2.43854 3.14722 2.27749 3.28609 2.07086C3.42496 1.86422 3.4991 1.62128 3.4991 1.37276C3.4991 1.0395 3.36593 0.719891 3.12892 0.484243C2.89191 0.248596 2.57047 0.116211 2.23528 0.116211Z" fill="#303030"/>
</svg>
