<svg width="16" height="15" viewBox="0 0 16 15" fill="none" xmlns="http://www.w3.org/2000/svg">
<g clip-path="url(#clip0_2568_28723)">
<path d="M11.719 0H4.28462C3.14885 0.00166186 2.06008 0.450983 1.25697 1.24947C0.453859 2.04796 0.00191562 3.13046 0.000244141 4.25969V10.7435C0.00191562 11.8727 0.453859 12.9552 1.25697 13.7537C2.06008 14.5522 3.14885 15.0015 4.28462 15.0031H11.719C12.8548 15.0015 13.9436 14.5522 14.7467 13.7537C15.5498 12.9552 16.0017 11.8727 16.0034 10.7435V4.25969C16.0017 3.13046 15.5498 2.04796 14.7467 1.24947C13.9436 0.450983 12.8548 0.00166186 11.719 0V0ZM14.7775 10.8126L11.1187 8.12985C11.0649 8.09125 11.0002 8.07048 10.9339 8.07048C10.8675 8.07048 10.8029 8.09125 10.7491 8.12985L8.12033 10.2408L4.39836 5.18639C4.37026 5.15 4.33447 5.12016 4.29353 5.099C4.25259 5.07783 4.2075 5.06585 4.1614 5.06387C4.11443 5.061 4.06748 5.06949 4.02455 5.08865C3.98163 5.1078 3.944 5.13702 3.91494 5.17381L1.23248 8.4157V4.25969C1.23332 3.45429 1.55548 2.68211 2.12828 2.11262C2.70108 1.54312 3.47773 1.22281 4.28779 1.22198H11.7222C12.5323 1.22281 13.3089 1.54312 13.8817 2.11262C14.4545 2.68211 14.7767 3.45429 14.7775 4.25969V10.8126Z" fill="#303030"/>
<path d="M11.2353 3.11621C10.9853 3.11621 10.741 3.18991 10.5331 3.32798C10.3253 3.46605 10.1633 3.66228 10.0676 3.89189C9.97199 4.12149 9.94695 4.37414 9.99572 4.61789C10.0445 4.86163 10.1649 5.08554 10.3416 5.26127C10.5184 5.437 10.7436 5.55668 10.9887 5.60516C11.2339 5.65364 11.488 5.62875 11.7189 5.53364C11.9498 5.43854 12.1472 5.27749 12.2861 5.07086C12.425 4.86422 12.4991 4.62128 12.4991 4.37276C12.4991 4.0395 12.3659 3.71989 12.1289 3.48424C11.8919 3.2486 11.5705 3.11621 11.2353 3.11621Z" fill="#303030"/>
</g>
<defs>
<clipPath id="clip0_2568_28723">
<rect width="16" height="15" fill="white"/>
</clipPath>
</defs>
</svg>
