<svg width="21" height="17" viewBox="0 0 21 17" fill="none" xmlns="http://www.w3.org/2000/svg">
<path d="M19.3986 6.4707H15.5182C15.2613 6.4707 15.015 6.5718 14.8334 6.75173C14.6518 6.93167 14.5498 7.17571 14.5498 7.43017C14.5498 7.68464 14.6518 7.92868 14.8334 8.10861C15.015 8.28855 15.2613 8.38962 15.5182 8.38962H19.3986C19.6554 8.38962 19.9017 8.28855 20.0833 8.10861C20.2649 7.92868 20.3669 7.68464 20.3669 7.43017C20.3669 7.17571 20.2649 6.93167 20.0833 6.75173C19.9017 6.5718 19.6554 6.4707 19.3986 6.4707Z" fill="#EAEAEA"/>
<path d="M8.29171 8.18141C9.10842 8.18141 9.90681 7.94141 10.5858 7.49176C11.2649 7.04212 11.794 6.40302 12.1064 5.65534C12.4188 4.90766 12.5003 4.08499 12.3407 3.29138C12.1812 2.49777 11.7876 1.76886 11.2099 1.19691C10.6321 0.62495 9.89613 0.235631 9.09503 0.0781817C8.29392 -0.0792676 7.46367 0.00223625 6.70933 0.312383C5.95498 0.62253 5.31044 1.14738 4.8572 1.82055C4.40397 2.49372 4.1624 3.28496 4.16309 4.09417C4.16309 4.63121 4.26992 5.16297 4.47745 5.65908C4.68497 6.15519 4.98914 6.60594 5.37256 6.98552C5.75598 7.3651 6.21113 7.66609 6.71202 7.87129C7.2129 8.07649 7.74969 8.18186 8.29171 8.18141ZM5.53698 3.82399C5.60042 3.38383 5.76603 2.96425 6.0208 2.59823C6.27557 2.23221 6.61253 1.92974 7.00523 1.71457C7.13042 1.65501 7.27435 1.64708 7.40543 1.69254C7.5365 1.73799 7.64402 1.83313 7.7044 1.95704C7.73476 2.01816 7.7526 2.08464 7.75689 2.15263C7.76119 2.22063 7.75186 2.28878 7.72943 2.35318C7.70701 2.41758 7.67194 2.47694 7.62625 2.52785C7.58055 2.57875 7.52513 2.62021 7.46319 2.64979C7.22294 2.79048 7.01796 2.98321 6.86357 3.21356C6.70919 3.44391 6.60942 3.70588 6.57175 3.97986C6.55403 4.10319 6.49189 4.216 6.3968 4.29749C6.30171 4.37897 6.18009 4.42364 6.05436 4.42323H5.97397C5.83585 4.40112 5.71225 4.32558 5.63031 4.21322C5.54837 4.10086 5.51481 3.96086 5.53698 3.82399Z" fill="#EAEAEA"/>
<path d="M8.29219 9.60841C6.73974 9.60676 5.20852 9.96559 3.8213 10.6561C2.43409 11.3467 1.22949 12.3497 0.30414 13.5848C0.13422 13.8103 0.0309805 14.0783 0.00595429 14.3587C-0.0190719 14.639 0.0351131 14.9208 0.16244 15.1724C0.289768 15.4239 0.48521 15.6355 0.726934 15.7833C0.968659 15.9311 1.24713 16.0094 1.53119 16.0094H15.0532C15.337 16.0088 15.615 15.93 15.8562 15.782C16.0974 15.6339 16.2923 15.4223 16.4192 15.1708C16.5462 14.9193 16.6 14.6378 16.5749 14.3578C16.5497 14.0777 16.4465 13.8101 16.2768 13.5848C15.3523 12.3496 14.1484 11.3464 12.7617 10.6558C11.375 9.96523 9.84419 9.60648 8.29219 9.60841Z" fill="#EAEAEA"/>
</svg>
