<svg width="19" height="20" viewBox="0 0 19 20" fill="none" xmlns="http://www.w3.org/2000/svg">
<path d="M11.4695 9.48186L10.0831 8.44206C9.95707 8.34753 9.89405 8.18999 9.92556 8.06395L10.0516 7.5283L10.5242 5.41719C10.6188 4.97607 9.98858 4.75551 9.67349 5.1021L8.47614 6.29945L6.39655 8.50508C6.20749 8.69413 6.239 8.94621 6.42806 9.10375L7.65691 10.0175L9.04331 11.0573C9.16934 11.1518 9.23236 11.3094 9.20085 11.4354L9.07482 11.9711L8.60218 14.0822C8.50765 14.5233 9.13783 14.7439 9.45292 14.3973L10.6503 13.1684L12.7299 10.9943C12.9189 10.8052 12.8874 10.5532 12.6984 10.3956L11.4695 9.48186Z" fill="#303030"/>
<path d="M18.3067 12.0352H17.33C17.0779 12.0352 16.8573 12.1927 16.7313 12.4448C16.3532 13.4531 15.7545 14.3353 14.9983 15.0915C12.2255 17.8643 7.84575 18.1164 4.78937 15.6902C4.56881 15.5327 4.44277 15.2806 4.41126 14.997C4.37976 14.7134 4.50579 14.4614 4.69485 14.2408L5.38804 13.5476C5.60861 13.327 5.60861 13.0434 5.51408 12.8544C5.45106 12.6653 5.2305 12.4763 4.94692 12.4763H0.630181C0.283581 12.4763 0 12.7599 0 13.1065V17.4862C0 17.8013 0.189054 17.9904 0.378108 18.0534C0.567163 18.1164 0.850744 18.1479 1.07131 17.9273L1.82752 17.1711C2.01658 16.9821 2.26865 16.8875 2.52072 16.8875C2.74129 16.8875 2.96185 16.9506 3.1509 17.1081C7.02651 20.4796 12.9187 20.259 16.5737 16.6355C17.6451 15.5642 18.4328 14.3038 18.9054 12.8544C18.9684 12.6653 18.9369 12.4763 18.8109 12.2872C18.6849 12.1297 18.4958 12.0352 18.3067 12.0352Z" fill="#303030"/>
<path d="M0.630151 7.4662H1.60693C1.859 7.4662 2.07957 7.30865 2.2056 7.05658C2.58371 6.04829 3.18238 5.16604 3.9386 4.40982C6.71139 1.63703 11.0911 1.38496 14.1475 3.81115C14.3681 3.9687 14.4941 4.22077 14.5256 4.50435C14.5571 4.78793 14.4311 5.04 14.2421 5.26057L13.5489 5.95377C13.3283 6.17433 13.3283 6.45791 13.4228 6.64697C13.4858 6.83602 13.7064 7.02507 13.99 7.02507H18.3697C18.7163 7.02507 18.9999 6.74149 18.9999 6.39489V2.01514C18.9999 1.70005 18.8109 1.51099 18.6218 1.44798C18.4328 1.38496 18.1492 1.35345 17.9286 1.57401L17.1724 2.33023C16.9833 2.51928 16.7313 2.61381 16.4792 2.61381C16.2586 2.61381 16.0381 2.55079 15.849 2.39325C11.9734 -0.97822 6.08121 -0.757657 2.42617 2.86588C1.35486 3.93719 0.567133 5.19755 0.0944973 6.64697C0.0314793 6.83602 0.0629883 7.02507 0.189024 7.21413C0.220533 7.37167 0.409588 7.4662 0.630151 7.4662Z" fill="#303030"/>
</svg>
