<svg width="21" height="15" viewBox="0 0 21 15" fill="none" xmlns="http://www.w3.org/2000/svg">
<path d="M1.18941 8.69134H19.6255C19.9409 8.69134 20.2435 8.56603 20.4665 8.34297C20.6896 8.11991 20.8149 7.81737 20.8149 7.50191C20.8149 7.18646 20.6896 6.88393 20.4665 6.66087C20.2435 6.43781 19.9409 6.3125 19.6255 6.3125H1.18941C0.87396 6.3125 0.571428 6.43781 0.348368 6.66087C0.125308 6.88393 0 7.18646 0 7.50191C0 7.81737 0.125308 8.11991 0.348368 8.34297C0.571428 8.56603 0.87396 8.69134 1.18941 8.69134Z" fill="#EAEAEA"/>
<path d="M4.54258 2.85345H16.2803C16.5958 2.85345 16.8983 2.72814 17.1213 2.50508C17.3444 2.28202 17.4697 1.97949 17.4697 1.66404C17.4697 1.34858 17.3444 1.04604 17.1213 0.822978C16.8983 0.599917 16.5958 0.474609 16.2803 0.474609H4.54258C4.22712 0.474609 3.92459 0.599917 3.70153 0.822978C3.47847 1.04604 3.35315 1.34858 3.35315 1.66404C3.35315 1.97949 3.47847 2.28202 3.70153 2.50508C3.92459 2.72814 4.22712 2.85345 4.54258 2.85345Z" fill="#EAEAEA"/>
<path d="M4.54258 14.5244H16.2803C16.5958 14.5244 16.8983 14.399 17.1213 14.176C17.3444 13.9529 17.4697 13.6504 17.4697 13.3349C17.4697 13.0195 17.3444 12.7169 17.1213 12.4939C16.8983 12.2708 16.5958 12.1455 16.2803 12.1455H4.54258C4.22712 12.1455 3.92459 12.2708 3.70153 12.4939C3.47847 12.7169 3.35315 13.0195 3.35315 13.3349C3.35315 13.6504 3.47847 13.9529 3.70153 14.176C3.92459 14.399 4.22712 14.5244 4.54258 14.5244Z" fill="#EAEAEA"/>
</svg>
