<svg width="19" height="19" viewBox="0 0 19 19" fill="none" xmlns="http://www.w3.org/2000/svg">
<path d="M13.2009 16.2603H8.14844V17.0075C8.14844 17.9681 8.93121 18.7509 9.89188 18.7509H17.257C18.2177 18.7509 19.0005 17.9681 19.0005 17.0075V9.60673C19.0005 8.64605 18.2177 7.86328 17.257 7.86328H16.3675V13.0936C16.4031 14.8371 14.9799 16.2603 13.2009 16.2603Z" fill="white"/>
<path d="M12.3109 9.14397C12.3109 10.8874 10.8877 12.3106 9.14423 12.3106H4.0918V13.0578C4.0918 14.0185 4.87457 14.8013 5.83524 14.8013H13.2004C14.1611 14.8013 14.9439 14.0185 14.9439 13.0578V5.69266C14.9439 4.73199 14.1611 3.94922 13.2004 3.94922H12.3109V9.14397Z" fill="white"/>
<path d="M1.74345 0H9.14419C10.1049 0 10.8876 0.782771 10.8876 1.74345V9.14419C10.8876 10.1049 10.1049 10.8876 9.14419 10.8876H1.74345C0.782771 10.8876 0 10.1049 0 9.14419V1.74345C0 0.782771 0.782771 0 1.74345 0Z" fill="white"/>
</svg>
