<svg width="97" height="17" viewBox="0 0 97 17" fill="none" xmlns="http://www.w3.org/2000/svg">
<path d="M4.73531 7.43131C4.5673 7.42352 4.40912 7.3499 4.29497 7.22639C4.18082 7.10289 4.11987 6.93941 4.12531 6.77131C4.1331 6.60596 4.20566 6.45032 4.32729 6.33805C4.44892 6.22577 4.60986 6.16587 4.77531 6.17131C4.85674 6.1739 4.93686 6.19251 5.0111 6.22608C5.08534 6.25965 5.15223 6.30752 5.20795 6.36696C5.26367 6.4264 5.30714 6.49623 5.33585 6.57248C5.36457 6.64872 5.37797 6.72988 5.37531 6.81131C5.38074 6.89388 5.36932 6.9767 5.34174 7.05471C5.31415 7.13273 5.27098 7.20432 5.21485 7.26512C5.15872 7.32593 5.09081 7.37468 5.01525 7.40841C4.93968 7.44213 4.85805 7.46013 4.77531 7.46131L4.73531 7.43131ZM3.16531 11.7413C3.27531 12.0813 3.31531 12.3813 2.99531 12.6013C2.67531 12.8213 2.11531 12.4413 1.99531 12.0913C1.6916 11.4555 1.56124 10.7507 1.61743 10.0483C1.67362 9.34587 1.91437 8.67078 2.31531 8.09131C2.39723 7.94785 2.53222 7.84231 2.69121 7.79742C2.8502 7.75252 3.02045 7.77188 3.16531 7.85131C3.21302 7.88247 3.25668 7.91942 3.29531 7.96131C3.38315 8.05869 3.43176 8.18517 3.43176 8.31631C3.43176 8.44745 3.38315 8.57394 3.29531 8.67131C2.99123 9.12821 2.81832 9.65977 2.7954 10.2081C2.77248 10.7565 2.90042 11.3006 3.16531 11.7813V11.7413ZM11.7353 9.36131C11.4962 7.8166 10.6548 6.42953 9.39537 5.5037C8.13593 4.57786 6.56101 4.18868 5.0153 4.42131C4.25075 4.53498 3.51611 4.79828 2.85341 5.19614C2.19071 5.594 1.61296 6.11862 1.15321 6.73998C0.693453 7.36135 0.360723 8.06726 0.17405 8.81734C-0.0126236 9.56741 -0.0495747 10.3469 0.0653078 11.1113C0.181245 11.8773 0.44717 12.613 0.847855 13.2761C1.24854 13.9392 1.77611 14.5167 2.40035 14.9756C3.02458 15.4345 3.73322 15.7657 4.48566 15.9503C5.23811 16.1349 6.01957 16.1692 6.78531 16.0513C7.5532 15.9411 8.29182 15.6805 8.95888 15.2844C9.62594 14.8884 10.2083 14.3647 10.6728 13.7433C11.1372 13.1219 11.4745 12.415 11.6654 11.6631C11.8563 10.9112 11.8971 10.129 11.7853 9.36131" fill="#BA474D"/>
<path d="M4.76508 7.47154C4.68277 7.46899 4.60179 7.45006 4.52688 7.41586C4.45196 7.38167 4.38461 7.33289 4.32876 7.27238C4.2729 7.21187 4.22966 7.14084 4.20156 7.06343C4.17345 6.98602 4.16105 6.9038 4.16508 6.82155C4.16638 6.74012 4.18371 6.65975 4.21608 6.58503C4.24844 6.51031 4.29521 6.44269 4.35372 6.38604C4.41222 6.3294 4.48131 6.28483 4.55704 6.25489C4.63277 6.22495 4.71366 6.21022 4.79508 6.21154C4.96042 6.21677 5.11707 6.28682 5.2312 6.40657C5.34533 6.52631 5.40779 6.68614 5.40508 6.85154C5.40257 6.93606 5.38307 7.0192 5.34775 7.09602C5.31243 7.17284 5.26201 7.24176 5.19949 7.29868C5.13697 7.3556 5.06363 7.39936 4.98384 7.42734C4.90406 7.45532 4.81945 7.46695 4.73508 7.46154L4.76508 7.47154ZM11.1651 12.9615C11.1651 12.8915 11.2451 12.8215 11.2751 12.7415C11.3291 12.6382 11.3759 12.5313 11.4151 12.4215C11.4417 12.3534 11.4717 12.2866 11.5051 12.2215C11.5051 12.1515 11.5651 12.0015 11.6051 11.8915C11.6355 11.818 11.6557 11.7406 11.6651 11.6615C11.6651 11.5815 11.7151 11.4515 11.7351 11.3515C11.7551 11.2515 11.7351 11.1815 11.7851 11.1015V9.95154C11.775 9.754 11.755 9.55708 11.7251 9.36154C11.6947 9.16965 11.6546 8.97941 11.6051 8.79154C11.5942 8.72567 11.574 8.66169 11.5451 8.60154C11.5176 8.47892 11.4808 8.35857 11.4351 8.24155C11.4201 8.15983 11.3895 8.08175 11.3451 8.01154C11.3451 7.93154 11.2651 7.81154 11.2151 7.71154C11.183 7.63098 11.1428 7.55391 11.0951 7.48155C11.0951 7.39155 10.9951 7.29154 10.9451 7.20154C10.9042 7.13101 10.8574 7.0641 10.8051 7.00155C10.7451 6.90155 10.6851 6.82154 10.6151 6.72154L10.4651 6.54154C10.4037 6.44823 10.3334 6.36115 10.2551 6.28154L10.0351 6.05155L9.81508 5.83155L9.52508 5.51154L9.33508 5.38154C9.20796 5.28567 9.0743 5.19879 8.93508 5.12154L8.67508 5.05154L8.43508 4.93154L8.13508 4.80154L7.89508 4.70154L7.60508 4.62154L7.33508 4.54154L7.06508 4.48155L6.77508 4.43154H5.61508C5.42703 4.42374 5.23877 4.44055 5.05508 4.48155C4.87154 4.49795 4.69041 4.53485 4.51508 4.59155L4.24508 4.67155L3.96508 4.76154C3.85508 4.76154 3.76508 4.84154 3.66508 4.88154L3.42508 4.98155C3.33508 5.03155 3.24508 5.07154 3.15508 5.13154C3.07542 5.16552 2.99851 5.20564 2.92508 5.25155L2.66508 5.42155C2.58474 5.46568 2.50786 5.51583 2.43508 5.57155L2.19508 5.77154L1.98508 5.93154L1.73508 6.19154L1.58508 6.35154C1.45064 6.49481 1.32381 6.64502 1.20508 6.80154L2.68508 7.87154C2.7968 7.83525 2.91662 7.83198 3.03015 7.86214C3.14368 7.8923 3.24609 7.95459 3.32508 8.04154C3.37877 8.09211 3.41952 8.15485 3.44389 8.22446C3.46825 8.29408 3.47552 8.36853 3.46508 8.44154L10.6451 13.7715L10.7351 13.6315C10.8175 13.5222 10.8943 13.4087 10.9651 13.2915C11.0351 13.1715 11.0851 13.1015 11.1351 13.0015" fill="#CF6D38"/>
<path d="M20.8252 10.1708V10.1208C20.837 9.32929 21.1354 8.56893 21.6652 7.98078C21.9245 7.69361 22.2369 7.4593 22.5852 7.29078C22.9391 7.12706 23.3253 7.04503 23.7152 7.05078C24.1034 7.05184 24.4875 7.13002 24.8452 7.28078C25.1954 7.44227 25.5112 7.66975 25.7752 7.95078C26.0459 8.23992 26.2566 8.57979 26.3952 8.95078C26.5558 9.34056 26.6341 9.75931 26.6252 10.1808C26.6257 10.9854 26.3221 11.7605 25.7752 12.3508C25.5116 12.6298 25.1956 12.854 24.8452 13.0108H24.7952L27.3652 14.9008C27.5246 14.7747 27.6749 14.6377 27.8152 14.4908C28.3538 13.9504 28.7788 13.3078 29.0652 12.6008C29.3772 11.822 29.5334 10.9897 29.5252 10.1508C29.5274 9.33515 29.3712 8.52686 29.0652 7.77078C28.7735 7.06355 28.3492 6.41863 27.8152 5.87078C27.2882 5.33223 26.6594 4.90391 25.9652 4.61078C25.2452 4.30271 24.4684 4.1494 23.6852 4.16078C23.4203 4.15884 23.1557 4.18228 22.8952 4.23078C22.6229 4.28619 22.3554 4.3631 22.0952 4.46078C21.836 4.55853 21.5906 4.68963 21.3652 4.85078C21.1454 4.99233 20.9524 5.17178 20.7952 5.38078V0.0507812H17.8652V8.05078L20.8252 10.1708Z" fill="#CF6D38"/>
<path d="M39.5562 14.5913L40.5562 15.9213H41.2562V4.53125H38.3062V10.8213C38.3058 11.126 38.2481 11.4279 38.1362 11.7113C38.035 12.0039 37.8751 12.2727 37.6662 12.5013C37.475 12.7327 37.2363 12.9203 36.9662 13.0513L36.8262 13.1112L39.2662 14.8413C39.3578 14.7523 39.4546 14.6688 39.5562 14.5913Z" fill="#CF6D38"/>
<path d="M33.9259 11.0516C33.9388 11.3378 33.9927 11.6206 34.0859 11.8916C34.1396 12.0391 34.2101 12.18 34.2959 12.3116C34.2101 12.18 34.1396 12.0391 34.0859 11.8916C33.9686 11.5714 33.911 11.2325 33.9159 10.8916V4.60156H31.0059V9.00156L33.9259 11.0516Z" fill="#CF6D38"/>
<path d="M35.6748 13.1913C35.5332 13.1604 35.3957 13.1134 35.2648 13.0513L34.8848 12.8613L35.2648 13.0513C35.3969 13.1031 35.5344 13.14 35.6748 13.1613" fill="#CF6D38"/>
<path d="M50.2246 16.0502C50.6021 15.98 50.9709 15.8694 51.3246 15.7202L51.8346 15.4902L51.3246 15.7202C50.9709 15.8694 50.6021 15.98 50.2246 16.0502Z" fill="#CF6D38"/>
<path d="M46.166 10.0508C46.1728 9.87995 46.1895 9.70967 46.216 9.54078C46.2561 9.34622 46.313 9.1555 46.386 8.97078C46.4599 8.78635 46.5502 8.60896 46.656 8.44078C46.7581 8.27688 46.8753 8.12288 47.006 7.98078C47.2653 7.69361 47.5777 7.4593 47.926 7.29078C48.2769 7.12852 48.6595 7.04653 49.046 7.05078C49.4311 7.05073 49.8121 7.12898 50.166 7.28078C50.5162 7.44227 50.832 7.66975 51.096 7.95078C51.3667 8.23992 51.5774 8.57979 51.716 8.95078C51.8766 9.34056 51.9549 9.75931 51.946 10.1808C51.9521 10.9954 51.6482 11.7819 51.096 12.3808C50.8444 12.6411 50.5458 12.8515 50.216 13.0008L52.846 14.8308C53.1149 14.6037 53.3625 14.3526 53.586 14.0808C53.8257 13.7848 54.0366 13.4667 54.216 13.1308C54.306 12.9608 54.386 12.7808 54.466 12.6008C54.6188 12.2233 54.7327 11.8313 54.806 11.4308C54.8861 11.0088 54.9262 10.5803 54.926 10.1508C54.9257 9.72794 54.8856 9.30607 54.806 8.89078C54.7325 8.49678 54.6186 8.11141 54.466 7.74078C54.386 7.56078 54.306 7.38078 54.216 7.21078C54.0389 6.87347 53.8278 6.55515 53.586 6.26078C53.4735 6.11164 53.3498 5.97124 53.216 5.84078C53.086 5.70078 52.946 5.58078 52.806 5.45078C52.3741 5.08773 51.8883 4.79421 51.366 4.58078C51.0112 4.42972 50.6429 4.31253 50.266 4.23078C49.8789 4.13548 49.484 4.07523 49.086 4.05078C48.8207 4.05214 48.5562 4.07893 48.296 4.13078L47.876 4.23078C47.7432 4.26515 47.6129 4.30858 47.486 4.36078C47.355 4.40716 47.2279 4.46401 47.106 4.53078C46.9851 4.59336 46.8681 4.6635 46.756 4.74078L46.446 4.99078C46.3517 5.08034 46.2648 5.17731 46.186 5.28078V0.0507812H43.166V7.98078L46.166 10.0508Z" fill="#CF6D38"/>
<path d="M46.166 10.7617C46.2075 10.9625 46.2643 11.1597 46.336 11.3517C46.408 11.5338 46.4985 11.7081 46.606 11.8717C46.4985 11.7081 46.408 11.5338 46.336 11.3517C46.2643 11.1597 46.2075 10.9625 46.166 10.7617Z" fill="#CF6D38"/>
<path d="M52.7659 14.8398C52.4767 15.076 52.1652 15.2837 51.8359 15.4598C52.1652 15.2837 52.4767 15.076 52.7659 14.8398Z" fill="#CF6D38"/>
<path d="M59.2154 9.93078C59.2298 9.58815 59.3007 9.25026 59.4254 8.93078C59.564 8.55979 59.7747 8.21992 60.0454 7.93078C60.1732 7.78821 60.3138 7.65766 60.4654 7.54078C60.6213 7.42916 60.7851 7.32891 60.9554 7.24078C61.3077 7.07016 61.694 6.98128 62.0854 6.98078C62.4736 6.98184 62.8577 7.06002 63.2154 7.21078C63.3861 7.2905 63.55 7.38415 63.7054 7.49078C63.8621 7.59767 64.0063 7.72178 64.1354 7.86078C64.404 8.15335 64.6175 8.49215 64.7654 8.86078C64.9157 9.25352 64.9937 9.67025 64.9954 10.0908C65.006 10.9081 64.6975 11.6973 64.1354 12.2908C64.0089 12.4325 63.8644 12.5569 63.7054 12.6608C63.6014 12.7369 63.491 12.8038 63.3754 12.8608L65.9354 14.7008C65.7541 14.8584 65.5638 15.0053 65.3654 15.1408C65.6784 14.938 65.967 14.6997 66.2254 14.4308C66.761 13.89 67.1826 13.2474 67.4654 12.5408C67.6987 11.9659 67.8437 11.359 67.8954 10.7408C67.8954 10.5308 67.8954 10.3108 67.8954 10.0908C67.8954 9.87078 67.8954 9.67078 67.8954 9.45078C67.843 8.84234 67.698 8.24546 67.4654 7.68078C67.1767 6.97435 66.7558 6.32949 66.2254 5.78078C65.9646 5.51147 65.6764 5.27016 65.3654 5.06078C65.0532 4.84409 64.7178 4.66296 64.3654 4.52078C63.6447 4.21346 62.8688 4.05691 62.0854 4.06078C61.8201 4.06262 61.5556 4.0894 61.2954 4.14078C61.0223 4.19284 60.7545 4.26983 60.4954 4.37078C60.2397 4.46514 59.9976 4.59292 59.7754 4.75078C59.5566 4.90128 59.3611 5.08323 59.1954 5.29078V0.0507812H56.2754V7.86078L59.2154 9.93078Z" fill="#CF6D38"/>
<path d="M59.4258 11.3516C59.5702 11.722 59.784 12.0614 60.0558 12.3516C60.1763 12.4954 60.3179 12.6201 60.4758 12.7216C60.3179 12.6201 60.1763 12.4954 60.0558 12.3516C59.784 12.0614 59.5702 11.722 59.4258 11.3516Z" fill="#CF6D38"/>
<path d="M69.5449 0V9.95L72.4849 12.04V0H69.5449Z" fill="#CF6D38"/>
<path d="M85.9557 9.24079C85.9854 9.3575 86.0255 9.4713 86.0757 9.58079C86.4375 10.4512 87.1271 11.1445 87.9957 11.5108L88.3357 11.6408C88.6849 11.7523 89.0491 11.8096 89.4157 11.8108H92.4157C92.5087 11.8008 92.6026 11.8008 92.6957 11.8108C92.7762 11.8189 92.8543 11.8427 92.9257 11.8808C92.9997 11.9159 93.0608 11.9734 93.1003 12.0452C93.1398 12.117 93.1557 12.1995 93.1457 12.2808C93.1431 12.4727 93.065 12.6558 92.9284 12.7905C92.7917 12.9253 92.6076 13.0008 92.4157 13.0008H89.3257L93.2357 15.8008C93.4373 15.7541 93.6347 15.6905 93.8257 15.6108C94.2608 15.4268 94.6551 15.1583 94.9857 14.8208C95.3177 14.4895 95.5856 14.0996 95.7757 13.6708C95.8804 13.4581 95.9577 13.233 96.0057 13.0008C96.0537 12.7605 96.0772 12.5159 96.0757 12.2708C96.0777 12.0257 96.0542 11.781 96.0057 11.5408C95.9575 11.3151 95.8802 11.0966 95.7757 10.8908C95.5911 10.4793 95.322 10.1113 94.9857 9.81079C94.6449 9.51124 94.2516 9.27731 93.8257 9.12079C93.6065 9.03317 93.3785 8.96947 93.1457 8.93079C92.9044 8.89053 92.6603 8.87046 92.4157 8.87079H89.4157C89.3202 8.87085 89.2256 8.85137 89.1379 8.81354C89.0502 8.7757 88.9712 8.72032 88.9057 8.65079C88.8379 8.58143 88.7836 8.50004 88.7457 8.41079C88.7044 8.32003 88.6871 8.22015 88.6957 8.12079C88.6868 8.02789 88.7041 7.93436 88.7457 7.85079C88.7811 7.76308 88.8358 7.68447 88.9057 7.62079C88.9712 7.55126 89.0502 7.49587 89.1379 7.45804C89.2256 7.4202 89.3202 7.40072 89.4157 7.40079H95.3157V4.55079H89.4157C89.0504 4.5501 88.6869 4.60059 88.3357 4.70079L87.9957 4.83079C87.5669 5.02089 87.177 5.28874 86.8457 5.62079C86.5075 5.94904 86.2358 6.33952 86.0457 6.77079L85.9257 7.11079C85.8174 7.46049 85.7635 7.82472 85.7657 8.19079C85.7737 8.54857 85.8378 8.90289 85.9557 9.24079Z" fill="#CF6D38"/>
<path d="M93.1655 15.8711C92.9253 15.9196 92.6806 15.9431 92.4355 15.9411C92.6806 15.9431 92.9253 15.9196 93.1655 15.8711Z" fill="#CF6D38"/>
<path d="M23.7152 13.2208C23.3226 13.2213 22.9343 13.1395 22.5752 12.9808C21.8743 12.6549 21.3262 12.0709 21.0452 11.3508C20.8932 10.9763 20.8183 10.5749 20.8252 10.1708L17.8652 8.05078V10.1108C17.866 10.9261 18.0222 11.7339 18.3252 12.4908C18.6152 13.2014 19.0435 13.8472 19.5852 14.3908C20.1172 14.9254 20.7493 15.3501 21.4452 15.6408C22.4161 16.0523 23.4798 16.1952 24.5248 16.0544C25.5699 15.9137 26.5578 15.4945 27.3852 14.8408L24.7752 12.9708C24.4411 13.1197 24.0809 13.2013 23.7152 13.2108" fill="#BA474D"/>
<path d="M33.9259 11.0507L31.0059 8.9707V10.8607C31.0059 11.0607 31.0059 11.2607 31.0059 11.4607C31.0471 12.0065 31.1719 12.5428 31.3759 13.0507C31.6251 13.6793 31.9994 14.2509 32.4759 14.7307C32.7182 14.9612 32.9867 15.1626 33.2759 15.3307C33.5463 15.5158 33.8385 15.6669 34.1459 15.7807C34.7821 16.034 35.461 16.163 36.1459 16.1607C36.483 16.1651 36.8193 16.1248 37.1459 16.0407C37.4549 15.9528 37.7559 15.839 38.0459 15.7007C38.3408 15.5645 38.6221 15.4004 38.8859 15.2107C39.0459 15.1007 39.1859 14.9707 39.3359 14.8507L36.8359 13.0507C36.612 13.1489 36.3703 13.2 36.1259 13.2007C35.9796 13.2155 35.8322 13.2155 35.6859 13.2007C35.5441 13.1807 35.406 13.1403 35.2759 13.0807C35.1394 13.0317 35.0086 12.968 34.8859 12.8907C34.771 12.811 34.6668 12.7169 34.5759 12.6107C34.467 12.5137 34.3757 12.3987 34.3059 12.2707C34.2183 12.1438 34.1477 12.0059 34.0959 11.8607C33.9991 11.5972 33.9418 11.3209 33.9259 11.0407" fill="#BA474D"/>
<path d="M50.166 12.9816C49.8144 13.1414 49.4323 13.2233 49.046 13.2216C48.6567 13.2222 48.2716 13.1405 47.916 12.9816C47.5687 12.8247 47.256 12.6004 46.996 12.3216C46.8654 12.1831 46.7482 12.0324 46.646 11.8716C46.5365 11.7092 46.4459 11.5347 46.376 11.3516C46.3043 11.1596 46.2475 10.9624 46.206 10.7616C46.1707 10.55 46.1507 10.3361 46.146 10.1216V10.0516L43.166 7.93164V10.1216C43.1639 10.9373 43.3201 11.7456 43.626 12.5016C43.9162 13.2092 44.3445 13.8517 44.886 14.3916C45.4136 14.927 46.0425 15.3519 46.736 15.6416C47.0898 15.7908 47.4586 15.9014 47.836 15.9716C48.2213 16.0479 48.6133 16.0848 49.006 16.0816C49.4023 16.0902 49.7982 16.0532 50.186 15.9716C50.5621 15.9003 50.9304 15.7931 51.286 15.6516C51.4527 15.5783 51.6227 15.4983 51.796 15.4116C52.1275 15.2391 52.4393 15.0312 52.726 14.7916L50.216 12.9516L50.166 12.9816Z" fill="#BA474D"/>
<path d="M63.3751 12.8913L63.2251 12.9813C62.8696 13.1401 62.4845 13.2219 62.0951 13.2213C61.7057 13.2219 61.3206 13.1401 60.9651 12.9813C60.7929 12.9003 60.6288 12.8032 60.4751 12.6912C60.3195 12.5868 60.1783 12.4624 60.0551 12.3213C59.7827 12.0334 59.5717 11.6932 59.4351 11.3213C59.2792 10.9301 59.2011 10.5123 59.2051 10.0913V9.89125L56.2051 7.78125V10.0913C56.2061 10.5136 56.2429 10.9351 56.3151 11.3512C56.3919 11.7477 56.5057 12.1361 56.6551 12.5112C56.9511 13.2186 57.3787 13.8633 57.9151 14.4113C58.4471 14.9459 59.0791 15.3706 59.7751 15.6613C61.2328 16.2413 62.8573 16.2413 64.3151 15.6613C64.6663 15.5207 65.0016 15.343 65.3151 15.1313C65.5158 14.999 65.7063 14.852 65.8851 14.6912L63.3751 12.8913Z" fill="#BA474D"/>
<path d="M69.5449 15.9192H72.4849V12.0392L69.5449 9.94922V15.9192Z" fill="#BA474D"/>
<path d="M85.7949 13.0488V15.9388H92.4549C92.697 15.9369 92.9383 15.9101 93.1749 15.8588H93.2749L89.3549 13.0488H85.7949Z" fill="#BA474D"/>
<path d="M83.3243 15.049C83.476 14.9503 83.6197 14.8399 83.7543 14.719C84.1062 14.4055 84.4216 14.0533 84.6943 13.669L82.3043 11.959L82.1243 12.209C81.9443 12.4175 81.7356 12.5993 81.5043 12.749C81.2713 12.8873 81.0229 12.9981 80.7643 13.079H80.6543L83.3243 15.049Z" fill="#CF6D38"/>
<path d="M77.0651 10.4795C77.0551 10.3597 77.0551 10.2393 77.0651 10.1195C77.0574 9.68284 77.1321 9.24862 77.2851 8.83953C77.4218 8.46759 77.6327 8.12735 77.9051 7.83953C78.1645 7.57228 78.4736 7.35828 78.8151 7.20953C78.9937 7.14113 79.1776 7.08762 79.3651 7.04953C79.5568 7.01802 79.7507 7.00131 79.9451 6.99953H80.3551C80.4789 7.02235 80.5997 7.05925 80.7151 7.10953L77.7151 11.1095L79.7151 12.5395L84.6451 6.60953C84.5129 6.41772 84.3693 6.23405 84.2151 6.05953C84.055 5.88615 83.8847 5.72252 83.7051 5.56953C83.3569 5.26302 82.9743 4.99791 82.5651 4.77953C82.361 4.67058 82.1506 4.57374 81.9351 4.48953C81.7151 4.40953 81.4951 4.33953 81.2651 4.27953C81.0351 4.21953 80.8051 4.18953 80.5751 4.15953C80.3422 4.13953 80.108 4.13953 79.8751 4.15953H79.2751C78.7006 4.20941 78.1373 4.3477 77.6051 4.56953C77.2541 4.70662 76.9189 4.88095 76.6051 5.08953C76.2946 5.29192 76.0063 5.52655 75.7451 5.78953C75.2009 6.33501 74.7724 6.98463 74.4851 7.69953C74.3663 7.99443 74.2726 8.29885 74.2051 8.60953L77.0151 10.6095L77.0651 10.4795Z" fill="#CF6D38"/>
<path d="M79.245 13.1294L79.775 12.4994L77.775 11.1094L77.345 11.6694C77.2829 11.5641 77.239 11.4492 77.215 11.3294C77.1947 11.1931 77.1612 11.0592 77.115 10.9294C77.1 10.8232 77.1 10.7155 77.115 10.6094L74.315 8.60938C74.3011 8.69831 74.2776 8.78548 74.245 8.86938C74.1652 9.29474 74.125 9.72659 74.125 10.1594C74.1243 10.5823 74.1645 11.0042 74.245 11.4194C74.3206 11.8173 74.4379 12.2061 74.595 12.5794C74.8836 13.2883 75.3083 13.9338 75.845 14.4794C76.1108 14.7403 76.3985 14.9778 76.705 15.1894C77.0218 15.3985 77.3564 15.5792 77.705 15.7294C78.2386 15.9489 78.801 16.0904 79.375 16.1494H79.975C80.4435 16.1483 80.9101 16.0912 81.365 15.9794C82.0341 15.811 82.6698 15.5304 83.245 15.1494L83.365 15.0494L80.685 13.1394L80.385 13.1994C80.2485 13.2094 80.1115 13.2094 79.975 13.1994H79.635" fill="#BA474D"/>
</svg>
