<svg width="36" height="29" viewBox="0 0 36 29" fill="none" xmlns="http://www.w3.org/2000/svg">
<path d="M13.2745 29H13.2263C12.5657 28.9953 11.9144 28.8519 11.3189 28.5802C10.7233 28.3084 10.1983 27.9149 9.7813 27.4278L0.920692 17.0708C0.21346 16.1913 -0.105641 15.0845 0.0309304 13.9851C0.167502 12.8857 0.749071 11.88 1.65233 11.1814C2.5556 10.4827 3.70954 10.1461 4.86949 10.2427C6.02944 10.3393 7.10417 10.8617 7.86586 11.6991L13.3296 18.0797L28.1638 1.44037C28.9398 0.604421 30.0298 0.0912221 31.1994 0.0110347C32.3691 -0.0691528 33.5251 0.290056 34.4193 1.0115C35.3134 1.73295 35.8742 2.75907 35.9813 3.86941C36.0883 4.97974 35.7331 6.0857 34.9918 6.94968L16.6713 27.4933C16.2538 27.9635 15.7337 28.3418 15.1472 28.602C14.5607 28.8621 13.9217 28.9979 13.2745 29Z" fill="white"/>
</svg>
