<svg width="176" height="38" viewBox="0 0 176 38" fill="none" xmlns="http://www.w3.org/2000/svg">
<path d="M16.7353 23.4294C16.5673 23.4216 16.4091 23.348 16.295 23.2244C16.1808 23.1009 16.1199 22.9375 16.1253 22.7694C16.1331 22.604 16.2057 22.4484 16.3273 22.3361C16.4489 22.2238 16.6099 22.1639 16.7753 22.1694C16.8567 22.1719 16.9369 22.1906 17.0111 22.2241C17.0853 22.2577 17.1522 22.3056 17.208 22.365C17.2637 22.4244 17.3071 22.4943 17.3359 22.5705C17.3646 22.6468 17.378 22.7279 17.3753 22.8094C17.3807 22.8919 17.3693 22.9747 17.3417 23.0528C17.3142 23.1308 17.271 23.2024 17.2149 23.2632C17.1587 23.324 17.0908 23.3727 17.0152 23.4065C16.9397 23.4402 16.858 23.4582 16.7753 23.4594L16.7353 23.4294ZM15.1653 27.7394C15.2753 28.0794 15.3153 28.3794 14.9953 28.5994C14.6753 28.8194 14.1153 28.4394 13.9953 28.0894C13.6916 27.4535 13.5612 26.7487 13.6174 26.0463C13.6736 25.3439 13.9144 24.6688 14.3153 24.0894C14.3972 23.9459 14.5322 23.8404 14.6912 23.7955C14.8502 23.7506 15.0205 23.7699 15.1653 23.8494C15.213 23.8805 15.2567 23.9175 15.2953 23.9594C15.3831 24.0567 15.4318 24.1832 15.4318 24.3144C15.4318 24.4455 15.3831 24.572 15.2953 24.6694C14.9912 25.1263 14.8183 25.6578 14.7954 26.2062C14.7725 26.7545 14.9004 27.2987 15.1653 27.7794V27.7394ZM23.7353 25.3594C23.4962 23.8146 22.6548 22.4276 21.3954 21.5017C20.1359 20.5759 18.561 20.1867 17.0153 20.4194C16.2508 20.533 15.5161 20.7963 14.8534 21.1942C14.1907 21.592 13.613 22.1167 13.1532 22.738C12.6935 23.3594 12.3607 24.0653 12.174 24.8154C11.9874 25.5655 11.9504 26.345 12.0653 27.1094C12.1812 27.8754 12.4472 28.611 12.8479 29.2741C13.2485 29.9372 13.7761 30.5148 14.4003 30.9736C15.0246 31.4325 15.7332 31.7637 16.4857 31.9483C17.2381 32.1329 18.0196 32.1673 18.7853 32.0494C19.5532 31.9391 20.2918 31.6785 20.9589 31.2825C21.6259 30.8864 22.2083 30.3627 22.6728 29.7413C23.1372 29.1199 23.4745 28.413 23.6654 27.6611C23.8563 26.9092 23.8971 26.127 23.7853 25.3594" fill="#BA474D"/>
<path d="M16.7653 23.4696C16.683 23.467 16.602 23.4481 16.5271 23.4139C16.4522 23.3797 16.3849 23.3309 16.329 23.2704C16.2731 23.2099 16.2299 23.1389 16.2018 23.0615C16.1737 22.9841 16.1613 22.9018 16.1653 22.8196C16.1666 22.7382 16.184 22.6578 16.2163 22.5831C16.2487 22.5084 16.2955 22.4407 16.354 22.3841C16.4125 22.3274 16.4816 22.2829 16.5573 22.2529C16.633 22.223 16.7139 22.2083 16.7953 22.2096C16.9607 22.2148 17.1173 22.2849 17.2314 22.4046C17.3456 22.5244 17.408 22.6842 17.4053 22.8496C17.4028 22.9341 17.3833 23.0172 17.348 23.0941C17.3127 23.1709 17.2622 23.2398 17.1997 23.2967C17.1372 23.3536 17.0639 23.3974 16.9841 23.4254C16.9043 23.4534 16.8197 23.465 16.7353 23.4596L16.7653 23.4696ZM23.1653 28.9596C23.1653 28.8896 23.2453 28.8196 23.2753 28.7396C23.3293 28.6363 23.3761 28.5294 23.4153 28.4196C23.4419 28.3514 23.472 28.2847 23.5053 28.2196C23.5053 28.1496 23.5653 27.9996 23.6053 27.8896C23.6357 27.816 23.6559 27.7386 23.6653 27.6596C23.6653 27.5796 23.7153 27.4496 23.7353 27.3496C23.7553 27.2496 23.7353 27.1796 23.7853 27.0996V25.9496C23.7752 25.752 23.7552 25.5551 23.7253 25.3596C23.6949 25.1677 23.6549 24.9775 23.6053 24.7896C23.5945 24.7237 23.5743 24.6597 23.5453 24.5996C23.5179 24.477 23.4811 24.3566 23.4353 24.2396C23.4203 24.1579 23.3897 24.0798 23.3453 24.0096C23.3453 23.9296 23.2653 23.8096 23.2153 23.7096C23.1833 23.629 23.1431 23.552 23.0953 23.4796C23.0953 23.3896 22.9953 23.2896 22.9453 23.1996C22.9044 23.1291 22.8576 23.0621 22.8053 22.9996C22.7453 22.8996 22.6853 22.8196 22.6153 22.7196L22.4653 22.5396C22.404 22.4463 22.3336 22.3592 22.2553 22.2796L22.0353 22.0496L21.8153 21.8296L21.5253 21.5096L21.3353 21.3796C21.2082 21.2837 21.0745 21.1968 20.9353 21.1196L20.6753 21.0496L20.4353 20.9296L20.1353 20.7996L19.8953 20.6996L19.6053 20.6196L19.3353 20.5396L19.0653 20.4796L18.7753 20.4296H17.6153C17.4273 20.4218 17.239 20.4386 17.0553 20.4796C16.8718 20.496 16.6907 20.5329 16.5153 20.5896L16.2453 20.6696L15.9653 20.7596C15.8553 20.7596 15.7653 20.8396 15.6653 20.8796L15.4253 20.9796C15.3353 21.0296 15.2453 21.0696 15.1553 21.1296C15.0757 21.1636 14.9988 21.2037 14.9253 21.2496L14.6653 21.4196C14.585 21.4637 14.5081 21.5139 14.4353 21.5696L14.1953 21.7696L13.9853 21.9296L13.7353 22.1896L13.5853 22.3496C13.4509 22.4929 13.3241 22.6431 13.2053 22.7996L14.6853 23.8696C14.797 23.8333 14.9169 23.83 15.0304 23.8602C15.1439 23.8903 15.2463 23.9526 15.3253 24.0396C15.379 24.0902 15.4198 24.1529 15.4441 24.2225C15.4685 24.2921 15.4758 24.3666 15.4653 24.4396L22.6453 29.7696L22.7353 29.6296C22.8178 29.5203 22.8945 29.4068 22.9653 29.2896C23.0353 29.1696 23.0853 29.0996 23.1353 28.9996" fill="#CF6D38"/>
<path d="M32.8253 26.1698V26.1198C32.8371 25.3283 33.1355 24.568 33.6653 23.9798C33.9246 23.6926 34.237 23.4583 34.5853 23.2898C34.9392 23.1261 35.3254 23.0441 35.7153 23.0498C36.1035 23.0509 36.4876 23.129 36.8453 23.2798C37.1955 23.4413 37.5112 23.6688 37.7753 23.9498C38.0459 24.2389 38.2567 24.5788 38.3953 24.9498C38.5559 25.3396 38.6342 25.7583 38.6253 26.1798C38.6258 26.9845 38.3222 27.7596 37.7753 28.3498C37.5117 28.6288 37.1957 28.8531 36.8453 29.0098H36.7953L39.3653 30.8998C39.5246 30.7737 39.675 30.6367 39.8153 30.4898C40.3538 29.9495 40.7788 29.3069 41.0653 28.5998C41.3772 27.821 41.5335 26.9887 41.5253 26.1498C41.5275 25.3342 41.3712 24.5259 41.0653 23.7698C40.7736 23.0626 40.3493 22.4177 39.8153 21.8698C39.2883 21.3313 38.6594 20.9029 37.9653 20.6098C37.2452 20.3017 36.4684 20.1484 35.6853 20.1598C35.4203 20.1579 35.1558 20.1813 34.8953 20.2298C34.623 20.2852 34.3555 20.3621 34.0953 20.4598C33.8361 20.5576 33.5907 20.6887 33.3653 20.8498C33.1454 20.9914 32.9524 21.1708 32.7953 21.3798V16.0498H29.8653V24.0498L32.8253 26.1698Z" fill="#CF6D38"/>
<path d="M51.5553 30.5903L52.5553 31.9203H53.2553V20.5303H50.3053V26.8203C50.3049 27.125 50.2473 27.4269 50.1353 27.7103C50.0342 28.0029 49.8742 28.2717 49.6653 28.5003C49.4742 28.7318 49.2354 28.9193 48.9653 29.0503L48.8253 29.1103L51.2653 30.8403C51.357 30.7513 51.4538 30.6678 51.5553 30.5903Z" fill="#CF6D38"/>
<path d="M45.9253 27.0496C45.9383 27.3358 45.9921 27.6187 46.0853 27.8896C46.1391 28.0372 46.2095 28.1781 46.2953 28.3096C46.2095 28.1781 46.1391 28.0372 46.0853 27.8896C45.968 27.5695 45.9104 27.2305 45.9153 26.8896V20.5996H43.0053V24.9996L45.9253 27.0496Z" fill="#CF6D38"/>
<path d="M47.6753 29.1894C47.5338 29.1584 47.3962 29.1114 47.2653 29.0494L46.8853 28.8594L47.2653 29.0494C47.3975 29.1012 47.535 29.1381 47.6753 29.1594" fill="#CF6D38"/>
<path d="M62.2253 32.0502C62.6028 31.98 62.9716 31.8694 63.3253 31.7202L63.8353 31.4902L63.3253 31.7202C62.9716 31.8694 62.6028 31.98 62.2253 32.0502Z" fill="#CF6D38"/>
<path d="M58.1653 26.0498C58.1721 25.879 58.1888 25.7087 58.2153 25.5398C58.2554 25.3452 58.3122 25.1545 58.3853 24.9698C58.4592 24.7854 58.5495 24.608 58.6553 24.4398C58.7574 24.2759 58.8746 24.1219 59.0053 23.9798C59.2646 23.6926 59.577 23.4583 59.9253 23.2898C60.2762 23.1275 60.6588 23.0456 61.0453 23.0498C61.4304 23.0498 61.8114 23.128 62.1653 23.2798C62.5155 23.4413 62.8313 23.6688 63.0953 23.9498C63.366 24.2389 63.5767 24.5788 63.7153 24.9498C63.8759 25.3396 63.9542 25.7583 63.9453 26.1798C63.9514 26.9944 63.6475 27.7809 63.0953 28.3798C62.8437 28.6401 62.5451 28.8505 62.2153 28.9998L64.8453 30.8298C65.1141 30.6027 65.3618 30.3517 65.5853 30.0798C65.825 29.7838 66.0359 29.4657 66.2153 29.1298C66.3053 28.9598 66.3853 28.7798 66.4653 28.5998C66.6181 28.2224 66.732 27.8303 66.8053 27.4298C66.8854 27.0078 66.9255 26.5793 66.9253 26.1498C66.925 25.727 66.8849 25.3051 66.8053 24.8898C66.7318 24.4958 66.6179 24.1104 66.4653 23.7398C66.3853 23.5598 66.3053 23.3798 66.2153 23.2098C66.0382 22.8725 65.8271 22.5542 65.5853 22.2598C65.4728 22.1107 65.3491 21.9703 65.2153 21.8398C65.0853 21.6998 64.9453 21.5798 64.8053 21.4498C64.3734 21.0868 63.8876 20.7932 63.3653 20.5798C63.0105 20.4287 62.6422 20.3116 62.2653 20.2298C61.8782 20.1345 61.4833 20.0743 61.0853 20.0498C60.82 20.0512 60.5555 20.0779 60.2953 20.1298L59.8753 20.2298C59.7425 20.2642 59.6122 20.3076 59.4853 20.3598C59.3543 20.4062 59.2272 20.463 59.1053 20.5298C58.9844 20.5924 58.8674 20.6625 58.7553 20.7398L58.4453 20.9898C58.351 21.0794 58.2641 21.1763 58.1853 21.2798V16.0498H55.1653V23.9798L58.1653 26.0498Z" fill="#CF6D38"/>
<path d="M58.1653 26.7598C58.2068 26.9605 58.2636 27.1577 58.3353 27.3498C58.4073 27.5319 58.4978 27.7061 58.6053 27.8698C58.4978 27.7061 58.4073 27.5319 58.3353 27.3498C58.2636 27.1577 58.2068 26.9605 58.1653 26.7598Z" fill="#CF6D38"/>
<path d="M64.7653 30.8398C64.476 31.076 64.1646 31.2837 63.8353 31.4598C64.1646 31.2837 64.476 31.076 64.7653 30.8398Z" fill="#CF6D38"/>
<path d="M71.2153 25.9298C71.2297 25.5872 71.3006 25.2493 71.4253 24.9298C71.5639 24.5588 71.7746 24.2189 72.0453 23.9298C72.1731 23.7872 72.3137 23.6567 72.4653 23.5398C72.6212 23.4282 72.785 23.3279 72.9553 23.2398C73.3076 23.0692 73.6939 22.9803 74.0853 22.9798C74.4735 22.9809 74.8576 23.059 75.2153 23.2098C75.386 23.2895 75.5499 23.3832 75.7053 23.4898C75.862 23.5967 76.0062 23.7208 76.1353 23.8598C76.4039 24.1524 76.6174 24.4912 76.7653 24.8598C76.9157 25.2525 76.9936 25.6693 76.9953 26.0898C77.0059 26.9071 76.6974 27.6964 76.1353 28.2898C76.0089 28.4315 75.8643 28.5559 75.7053 28.6598C75.6013 28.7359 75.4909 28.8028 75.3753 28.8598L77.9353 30.6998C77.754 30.8574 77.5637 31.0044 77.3653 31.1398C77.6783 30.937 77.9669 30.6988 78.2253 30.4298C78.7609 29.8891 79.1825 29.2464 79.4653 28.5398C79.6986 27.9649 79.8436 27.3581 79.8953 26.7398C79.8953 26.5298 79.8953 26.3098 79.8953 26.0898C79.8953 25.8698 79.8953 25.6698 79.8953 25.4498C79.8429 24.8414 79.6979 24.2445 79.4653 23.6798C79.1766 22.9734 78.7557 22.3285 78.2253 21.7798C77.9645 21.5105 77.6763 21.2692 77.3653 21.0598C77.0531 20.8431 76.7177 20.662 76.3653 20.5198C75.6447 20.2125 74.8687 20.0559 74.0853 20.0598C73.82 20.0616 73.5555 20.0884 73.2953 20.1398C73.0222 20.1919 72.7544 20.2689 72.4953 20.3698C72.2396 20.4642 71.9975 20.5919 71.7753 20.7498C71.5565 20.9003 71.361 21.0823 71.1953 21.2898V16.0498H68.2753V23.8598L71.2153 25.9298Z" fill="#CF6D38"/>
<path d="M71.4253 27.3496C71.5697 27.72 71.7835 28.0595 72.0553 28.3496C72.1758 28.4934 72.3174 28.6182 72.4753 28.7196C72.3174 28.6182 72.1758 28.4934 72.0553 28.3496C71.7835 28.0595 71.5697 27.72 71.4253 27.3496Z" fill="#CF6D38"/>
<path d="M81.5453 16V25.95L84.4853 28.04V16H81.5453Z" fill="#CF6D38"/>
<path d="M97.9552 25.2398C97.9849 25.3565 98.0251 25.4703 98.0753 25.5798C98.4371 26.4503 99.1267 27.1435 99.9953 27.5098L100.335 27.6398C100.684 27.7513 101.049 27.8086 101.415 27.8098H104.415C104.508 27.7998 104.602 27.7998 104.695 27.8098C104.776 27.8179 104.854 27.8417 104.925 27.8798C104.999 27.9149 105.06 27.9725 105.1 28.0443C105.139 28.1161 105.155 28.1985 105.145 28.2798C105.143 28.4717 105.065 28.6548 104.928 28.7895C104.791 28.9243 104.607 28.9998 104.415 28.9998H101.325L105.235 31.7998C105.437 31.7531 105.634 31.6895 105.825 31.6098C106.26 31.4258 106.655 31.1573 106.985 30.8198C107.317 30.4885 107.585 30.0986 107.775 29.6698C107.88 29.4571 107.957 29.232 108.005 28.9998C108.053 28.7595 108.077 28.5149 108.075 28.2698C108.077 28.0247 108.054 27.7801 108.005 27.5398C107.957 27.3141 107.88 27.0956 107.775 26.8898C107.591 26.4783 107.322 26.1103 106.985 25.8098C106.644 25.5103 106.251 25.2763 105.825 25.1198C105.606 25.0322 105.378 24.9685 105.145 24.9298C104.904 24.8896 104.66 24.8695 104.415 24.8698H101.415C101.32 24.8699 101.225 24.8504 101.138 24.8126C101.05 24.7747 100.971 24.7193 100.905 24.6498C100.837 24.5805 100.783 24.4991 100.745 24.4098C100.704 24.3191 100.687 24.2192 100.695 24.1198C100.686 24.0269 100.704 23.9334 100.745 23.8498C100.781 23.7621 100.835 23.6835 100.905 23.6198C100.971 23.5503 101.05 23.4949 101.138 23.4571C101.225 23.4192 101.32 23.3997 101.415 23.3998H107.315V20.5498H101.415C101.05 20.5491 100.686 20.5996 100.335 20.6998L99.9953 20.8298C99.5665 21.0199 99.1765 21.2878 98.8452 21.6198C98.507 21.9481 98.2354 22.3385 98.0453 22.7698L97.9253 23.1098C97.817 23.4595 97.7631 23.8237 97.7653 24.1898C97.7733 24.5476 97.8374 24.9019 97.9552 25.2398Z" fill="#CF6D38"/>
<path d="M105.165 31.8701C104.925 31.9187 104.68 31.9421 104.435 31.9401C104.68 31.9421 104.925 31.9187 105.165 31.8701Z" fill="#CF6D38"/>
<path d="M35.7152 29.2198C35.3226 29.2203 34.9343 29.1386 34.5752 28.9798C33.8743 28.6539 33.3262 28.07 33.0452 27.3498C32.8932 26.9753 32.8183 26.5739 32.8252 26.1698L29.8652 24.0498V26.1098C29.866 26.9251 30.0222 27.7329 30.3252 28.4898C30.6152 29.2004 31.0435 29.8462 31.5852 30.3898C32.1172 30.9244 32.7493 31.3492 33.4452 31.6398C34.4161 32.0513 35.4798 32.1942 36.5248 32.0535C37.5699 31.9127 38.5578 31.4935 39.3852 30.8398L36.7752 28.9698C36.4411 29.1188 36.0809 29.2003 35.7152 29.2098" fill="#BA474D"/>
<path d="M45.9252 27.0497L43.0052 24.9697V26.8597C43.0052 27.0597 43.0052 27.2597 43.0052 27.4597C43.0465 28.0055 43.1713 28.5418 43.3752 29.0497C43.6245 29.6784 43.9987 30.2499 44.4752 30.7297C44.7176 30.9602 44.9861 31.1616 45.2752 31.3297C45.5457 31.5148 45.8379 31.6659 46.1452 31.7797C46.7815 32.033 47.4604 32.162 48.1452 32.1597C48.4824 32.1642 48.8187 32.1238 49.1452 32.0397C49.4542 31.9518 49.7553 31.838 50.0452 31.6997C50.3402 31.5635 50.6215 31.3994 50.8852 31.2097C51.0452 31.0997 51.1852 30.9697 51.3352 30.8497L48.8352 29.0497C48.6114 29.148 48.3697 29.199 48.1252 29.1997C47.9789 29.2146 47.8315 29.2146 47.6852 29.1997C47.5435 29.1798 47.4054 29.1393 47.2752 29.0797C47.1387 29.0307 47.0079 28.967 46.8852 28.8897C46.7704 28.81 46.6662 28.7159 46.5752 28.6097C46.4664 28.5127 46.375 28.3977 46.3052 28.2697C46.2177 28.1428 46.1471 28.005 46.0952 27.8597C45.9985 27.5963 45.9412 27.3199 45.9252 27.0397" fill="#BA474D"/>
<path d="M62.1652 28.9797C61.8136 29.1395 61.4315 29.2213 61.0452 29.2197C60.6559 29.2203 60.2708 29.1385 59.9152 28.9797C59.5679 28.8227 59.2552 28.5984 58.9952 28.3197C58.8646 28.1811 58.7474 28.0305 58.6452 27.8697C58.5357 27.7072 58.4451 27.5327 58.3752 27.3497C58.3035 27.1577 58.2467 26.9604 58.2052 26.7597C58.1699 26.5481 58.1499 26.3342 58.1452 26.1197V26.0497L55.1652 23.9297V26.1197C55.1631 26.9353 55.3193 27.7436 55.6252 28.4997C55.9154 29.2072 56.3437 29.8497 56.8852 30.3897C57.4128 30.9251 58.0417 31.35 58.7352 31.6397C59.089 31.7888 59.4578 31.8995 59.8352 31.9697C60.2205 32.0459 60.6125 32.0828 61.0052 32.0797C61.4015 32.0882 61.7974 32.0513 62.1852 31.9697C62.5613 31.8984 62.9296 31.7912 63.2852 31.6497C63.4519 31.5764 63.6219 31.4964 63.7952 31.4097C64.1267 31.2371 64.4385 31.0292 64.7252 30.7897L62.2152 28.9497L62.1652 28.9797Z" fill="#BA474D"/>
<path d="M75.3752 28.8903L75.2252 28.9803C74.8697 29.1391 74.4846 29.2209 74.0952 29.2203C73.7059 29.2209 73.3208 29.1391 72.9652 28.9803C72.7931 28.8994 72.629 28.8023 72.4752 28.6903C72.3196 28.5859 72.1784 28.4615 72.0552 28.3203C71.7828 28.0325 71.5719 27.6922 71.4352 27.3203C71.2794 26.9291 71.2012 26.5113 71.2052 26.0903V25.8903L68.2052 23.7803V26.0903C68.2062 26.5126 68.243 26.9341 68.3152 27.3503C68.3921 27.7467 68.5059 28.1351 68.6552 28.5103C68.9512 29.2176 69.3788 29.8624 69.9152 30.4103C70.4472 30.9449 71.0792 31.3696 71.7752 31.6603C73.233 32.2403 74.8575 32.2403 76.3152 31.6603C76.6665 31.5197 77.0017 31.3421 77.3152 31.1303C77.516 30.9981 77.7065 30.851 77.8852 30.6903L75.3752 28.8903Z" fill="#BA474D"/>
<path d="M81.5453 31.9202H84.4853V28.0402L81.5453 25.9502V31.9202Z" fill="#BA474D"/>
<path d="M97.7953 29.0498V31.9398H104.455C104.697 31.9379 104.939 31.9111 105.175 31.8598H105.275L101.355 29.0498H97.7953Z" fill="#BA474D"/>
<path d="M95.3253 31.05C95.4769 30.9512 95.6207 30.8409 95.7553 30.72C96.1072 30.4065 96.4225 30.0543 96.6953 29.67L94.3053 27.96L94.1253 28.21C93.9453 28.4185 93.7365 28.6003 93.5053 28.75C93.2723 28.8883 93.0239 28.9991 92.7653 29.08H92.6553L95.3253 31.05Z" fill="#CF6D38"/>
<path d="M89.0653 26.4795C89.0552 26.3597 89.0552 26.2393 89.0653 26.1195C89.0576 25.6828 89.1323 25.2486 89.2853 24.8395C89.4219 24.4676 89.6329 24.1273 89.9053 23.8395C90.1647 23.5723 90.4738 23.3583 90.8153 23.2095C90.9939 23.1411 91.1778 23.0876 91.3653 23.0495C91.557 23.018 91.7509 23.0013 91.9453 22.9995H92.3553C92.4791 23.0223 92.5999 23.0593 92.7153 23.1095L89.7153 27.1095L91.7153 28.5395L96.6453 22.6095C96.5131 22.4177 96.3695 22.2341 96.2153 22.0595C96.0552 21.8861 95.8849 21.7225 95.7053 21.5695C95.3571 21.263 94.9745 20.9979 94.5653 20.7795C94.3611 20.6706 94.1508 20.5737 93.9353 20.4895C93.7153 20.4095 93.4953 20.3395 93.2653 20.2795C93.0353 20.2195 92.8053 20.1895 92.5753 20.1595C92.3424 20.1395 92.1082 20.1395 91.8753 20.1595H91.2753C90.7008 20.2094 90.1375 20.3477 89.6053 20.5695C89.2543 20.7066 88.919 20.881 88.6053 21.0895C88.2947 21.2919 88.0065 21.5266 87.7453 21.7895C87.2011 22.335 86.7726 22.9846 86.4853 23.6995C86.3664 23.9944 86.2728 24.2989 86.2053 24.6095L89.0153 26.6095L89.0653 26.4795Z" fill="#CF6D38"/>
<path d="M91.2453 29.1294L91.7753 28.4994L89.7753 27.1094L89.3453 27.6694C89.2832 27.5641 89.2392 27.4492 89.2153 27.3294C89.1949 27.1931 89.1614 27.0592 89.1153 26.9294C89.1002 26.8232 89.1002 26.7155 89.1153 26.6094L86.3153 24.6094C86.3014 24.6983 86.2779 24.7855 86.2453 24.8694C86.1655 25.2947 86.1253 25.7266 86.1253 26.1594C86.1245 26.5823 86.1647 27.0042 86.2453 27.4194C86.3208 27.8173 86.4381 28.2061 86.5953 28.5794C86.8838 29.2883 87.3085 29.9338 87.8453 30.4794C88.111 30.7403 88.3987 30.9778 88.7053 31.1894C89.022 31.3985 89.3566 31.5792 89.7053 31.7294C90.2388 31.9489 90.8013 32.0904 91.3753 32.1494H91.9753C92.4437 32.1483 92.9103 32.0912 93.3653 31.9794C94.0343 31.811 94.67 31.5304 95.2453 31.1494L95.3653 31.0494L92.6853 29.1394L92.3853 29.1994C92.2488 29.2094 92.1117 29.2094 91.9753 29.1994H91.6353" fill="#BA474D"/>
</svg>
