<svg width="17" height="18" viewBox="0 0 17 18" fill="none" xmlns="http://www.w3.org/2000/svg">
<path d="M8.50001 0.00292969C6.81887 0.00292969 5.17546 0.501441 3.77764 1.43543C2.37983 2.36943 1.29037 3.69694 0.647029 5.25012C0.00368502 6.80329 -0.164646 8.51236 0.163328 10.1612C0.491302 11.81 1.30086 13.3246 2.4896 14.5133C3.67835 15.7021 5.19289 16.5116 6.84172 16.8396C8.49056 17.1676 10.1996 16.9992 11.7528 16.3559C13.306 15.7126 14.6335 14.6231 15.5675 13.2253C16.5015 11.8275 17 10.1841 17 8.50292C16.9972 6.24943 16.1008 4.08904 14.5073 2.49558C12.9139 0.902119 10.7535 0.00569641 8.50001 0.00292969ZM7.58344 4.69378C7.58344 4.58731 7.60445 4.48189 7.6453 4.38357C7.68615 4.28525 7.74601 4.19595 7.82146 4.12083C7.89691 4.0457 7.98647 3.98623 8.08497 3.9458C8.18346 3.90537 8.28897 3.88479 8.39544 3.88525H8.60802C8.82245 3.88525 9.02811 3.97043 9.17974 4.12206C9.33137 4.27369 9.41657 4.47935 9.41657 4.69378V4.90637C9.41703 5.01284 9.39646 5.11835 9.35603 5.21685C9.31561 5.31535 9.2561 5.40489 9.18097 5.48034C9.10585 5.55579 9.01656 5.61566 8.91823 5.65651C8.81991 5.69736 8.71449 5.71839 8.60802 5.71839H8.39544C8.18008 5.71839 7.97353 5.63284 7.82125 5.48055C7.66897 5.32827 7.58344 5.12173 7.58344 4.90637V4.69378ZM9.42006 12.1483C9.42006 12.3923 9.3231 12.6263 9.15056 12.7989C8.97801 12.9714 8.74402 13.0683 8.50001 13.0683C8.25599 13.0683 8.02195 12.9714 7.84941 12.7989C7.67687 12.6263 7.57995 12.3923 7.57995 12.1483V8.2764C7.57995 8.03239 7.67687 7.79837 7.84941 7.62583C8.02195 7.45328 8.25599 7.35636 8.50001 7.35636C8.74402 7.35636 8.97801 7.45328 9.15056 7.62583C9.3231 7.79837 9.42006 8.03239 9.42006 8.2764V12.1483Z" fill="#303030"/>
</svg>
