<svg width="21" height="15" viewBox="0 0 21 15" fill="none" xmlns="http://www.w3.org/2000/svg">
<path d="M1.18941 8.21673H19.6255C19.9409 8.21673 20.2435 8.09142 20.4665 7.86836C20.6896 7.6453 20.8149 7.34276 20.8149 7.0273C20.8149 6.71185 20.6896 6.40932 20.4665 6.18626C20.2435 5.9632 19.9409 5.83789 19.6255 5.83789H1.18941C0.87396 5.83789 0.571428 5.9632 0.348368 6.18626C0.125308 6.40932 0 6.71185 0 7.0273C0 7.34276 0.125308 7.6453 0.348368 7.86836C0.571428 8.09142 0.87396 8.21673 1.18941 8.21673Z" fill="#EAEAEA"/>
<path d="M4.54294 2.37884H16.2807C16.5961 2.37884 16.8987 2.25353 17.1217 2.03047C17.3448 1.80741 17.4701 1.50488 17.4701 1.18943C17.4701 0.873971 17.3448 0.571428 17.1217 0.348368C16.8987 0.125308 16.5961 0 16.2807 0H4.54294C4.22749 0 3.92496 0.125308 3.7019 0.348368C3.47884 0.571428 3.35352 0.873971 3.35352 1.18943C3.35352 1.50488 3.47884 1.80741 3.7019 2.03047C3.92496 2.25353 4.22749 2.37884 4.54294 2.37884Z" fill="#EAEAEA"/>
<path d="M4.54294 14.0498H16.2807C16.5961 14.0498 16.8987 13.9244 17.1217 13.7014C17.3448 13.4783 17.4701 13.1758 17.4701 12.8603C17.4701 12.5449 17.3448 12.2423 17.1217 12.0193C16.8987 11.7962 16.5961 11.6709 16.2807 11.6709H4.54294C4.22749 11.6709 3.92496 11.7962 3.7019 12.0193C3.47884 12.2423 3.35352 12.5449 3.35352 12.8603C3.35352 13.1758 3.47884 13.4783 3.7019 13.7014C3.92496 13.9244 4.22749 14.0498 4.54294 14.0498Z" fill="#EAEAEA"/>
</svg>
