<svg width="15" height="15" viewBox="0 0 15 15" fill="none" xmlns="http://www.w3.org/2000/svg">
<path fill-rule="evenodd" clip-rule="evenodd" d="M3.22543 6.45073C5.00675 6.45073 6.4508 5.00669 6.4508 3.22537C6.4508 1.44405 5.00675 0 3.22543 0C1.44411 0 6.29481e-05 1.44405 6.29481e-05 3.22537C6.29481e-05 5.00669 1.44411 6.45073 3.22543 6.45073ZM11.0149 6.45078C12.7962 6.45078 14.2403 5.00674 14.2403 3.22542C14.2403 1.4441 12.7962 4.95283e-05 11.0149 4.95283e-05C9.23358 4.95283e-05 7.78954 1.4441 7.78954 3.22542C7.78954 5.00674 9.23358 6.45078 11.0149 6.45078ZM6.45073 11.015C6.45073 12.7963 5.00669 14.2403 3.22537 14.2403C1.44405 14.2403 0 12.7963 0 11.015C0 9.23363 1.44405 7.78959 3.22537 7.78959C5.00669 7.78959 6.45073 9.23363 6.45073 11.015ZM11.0149 14.2403C12.7962 14.2403 14.2403 12.7963 14.2403 11.015C14.2403 9.23363 12.7962 7.78959 11.0149 7.78959C9.23358 7.78959 7.78954 9.23363 7.78954 11.015C7.78954 12.7963 9.23358 14.2403 11.0149 14.2403ZM2.73261 2.25953C3.07419 2.17689 3.28411 1.833 3.20147 1.49142C3.11884 1.14984 2.77494 0.939921 2.43336 1.02256C1.98471 1.13109 1.58845 1.39376 1.31372 1.76467C1.039 2.13558 0.903239 2.59121 0.930198 3.05203C0.950722 3.40286 1.25177 3.67063 1.6026 3.65011C1.95343 3.62958 2.2212 3.32854 2.20068 2.9777C2.19114 2.81466 2.23918 2.65342 2.33641 2.52214C2.43363 2.39087 2.57386 2.29793 2.73261 2.25953Z" fill="#EAEAEA"/>
</svg>
