<svg width="13" height="19" viewBox="0 0 13 19" fill="none" xmlns="http://www.w3.org/2000/svg">
<path d="M10.262 8.97191L7.52601 6.92168C7.27728 6.7353 7.15292 6.42466 7.2151 6.17615L7.46383 5.11997L8.39656 0.957393C8.58311 0.0876004 7.33946 -0.347296 6.71764 0.336113L4.35471 2.69698L0.250664 7.04594C-0.122431 7.41871 -0.060248 7.91573 0.312847 8.22637L2.73796 10.0281L5.47399 12.0783C5.72272 12.2647 5.84708 12.5753 5.7849 12.8238L5.53617 13.88L4.60343 18.0426C4.41689 18.9124 5.66054 19.3473 6.28236 18.6639L8.64529 16.2409L12.7493 11.9541C13.1224 11.5813 13.0602 11.0843 12.6872 10.7736L10.262 8.97191Z" fill="#EAEAEA"/>
</svg>
