<svg width="22" height="14" viewBox="0 0 22 14" fill="none" xmlns="http://www.w3.org/2000/svg">
<path d="M19.6205 0L10.9665 7.33519L2.30859 0H19.6205Z" fill="black"/>
<path d="M0.402926 11.9972C0.382108 11.8949 0.371427 11.7908 0.371094 11.6864V1.35577C0.372666 1.06599 0.44927 0.781314 0.593727 0.528244L6.783 5.78098L0.402926 11.9972Z" fill="black"/>
<path d="M20.0695 13.0464H1.93072C1.79687 13.0451 1.66357 13.0294 1.5332 12.9998L7.7941 6.88452L11.01 9.44096L14.222 6.88452L20.4829 12.9998C20.3474 13.0306 20.2086 13.0462 20.0695 13.0464Z" fill="black"/>
<path d="M21.6307 11.7015C21.6284 11.8058 21.6177 11.9097 21.5989 12.0124L15.2148 5.78057L21.4081 0.531708C21.5508 0.785456 21.6273 1.0697 21.6307 1.35925V11.7015Z" fill="black"/>
</svg>
