<svg width="18" height="15" viewBox="0 0 18 15" fill="none" xmlns="http://www.w3.org/2000/svg">
<path d="M6.42617 14.0858H6.40296C6.08491 14.0835 5.77129 14.014 5.48455 13.8823C5.19781 13.7506 4.94503 13.5599 4.74424 13.3239L0.477969 8.30483C0.137446 7.87863 -0.0161968 7.34228 0.0495606 6.80948C0.115318 6.27669 0.395336 5.78934 0.830245 5.45078C1.26515 5.11222 1.82076 4.94906 2.37926 4.9959C2.93776 5.04273 3.45523 5.29588 3.82198 5.70166L6.45269 8.79373L13.5952 0.730236C13.9688 0.325132 14.4936 0.0764333 15.0568 0.037574C15.62 -0.00128525 16.1766 0.172789 16.6071 0.522406C17.0376 0.872023 17.3077 1.36929 17.3592 1.90736C17.4107 2.44543 17.2397 2.98139 16.8828 3.40008L8.06168 13.3556C7.86067 13.5835 7.61026 13.7668 7.32785 13.8929C7.04545 14.019 6.73779 14.0848 6.42617 14.0858Z" fill="white"/>
</svg>
