<svg width="14" height="15" viewBox="0 0 14 15" fill="none" xmlns="http://www.w3.org/2000/svg">
<path d="M6.40039 13.2628C6.18838 13.262 5.9853 13.1771 5.83539 13.0267C5.68547 12.8762 5.60091 12.6724 5.60012 12.4597V10.9713C5.60091 10.7588 5.68561 10.5553 5.83561 10.4054C5.98561 10.2554 6.18866 10.1712 6.40039 10.1712H7.88371C8.0165 10.1712 8.14706 10.2055 8.2628 10.2709C8.49696 9.85388 8.79434 9.476 9.14431 9.15079C9.11647 9.07333 9.10218 8.9916 9.10215 8.90925V7.42387C9.10215 7.21088 9.18653 7.00661 9.33661 6.856C9.4867 6.7054 9.69024 6.62079 9.9025 6.62079H11.3827C11.595 6.62079 11.7985 6.7054 11.9486 6.856C12.0987 7.00661 12.183 7.21088 12.183 7.42387V7.91598H12.2642C12.7626 7.9179 13.2574 8.00047 13.7295 8.16053V3.52321C13.7161 3.14575 13.5546 2.78889 13.2802 2.53043C13.0057 2.27198 12.6405 2.13289 12.2642 2.14348H11.0608V1.6393C11.0529 1.41293 10.9562 1.19888 10.7916 1.04389C10.627 0.888895 10.4079 0.805558 10.1823 0.812076H10.1552C10.043 0.808041 9.9311 0.826243 9.82589 0.865643C9.72068 0.905044 9.62421 0.964866 9.54206 1.0417C9.45991 1.11852 9.39368 1.21085 9.34712 1.31339C9.30055 1.41593 9.27453 1.52668 9.27065 1.6393V2.14348H5.01043V1.6393C5.00258 1.41293 4.90576 1.19888 4.74115 1.04389C4.57655 0.888895 4.35756 0.805558 4.13193 0.812076H4.09579C3.86884 0.803916 3.64797 0.886426 3.48158 1.04151C3.31518 1.1966 3.21687 1.41158 3.20826 1.6393V2.14348H2.0048C1.81883 2.13785 1.63361 2.1691 1.4597 2.23544C1.28579 2.30178 1.12664 2.40191 0.991361 2.53008C0.856085 2.65826 0.747298 2.81196 0.671324 2.98237C0.595351 3.15279 0.553645 3.33658 0.548584 3.52321V13.1843C0.560373 13.5617 0.721013 13.9191 0.99518 14.1778C1.26935 14.4365 1.63465 14.5754 2.01082 14.564H8.15747C7.95276 14.1539 7.81079 13.7153 7.73629 13.2628H6.40039ZM8.68398 8.90925C8.68319 9.122 8.59862 9.3258 8.44871 9.47624C8.2988 9.62667 8.09572 9.71154 7.88371 9.71233H6.40039C6.18838 9.71154 5.9853 9.62667 5.83539 9.47624C5.68547 9.3258 5.60091 9.122 5.60012 8.90925V7.42387C5.60091 7.21113 5.68547 7.00732 5.83539 6.85689C5.9853 6.70645 6.18838 6.62159 6.40039 6.62079H7.88371C8.09572 6.62159 8.2988 6.70645 8.44871 6.85689C8.59862 7.00732 8.68319 7.21113 8.68398 7.42387V8.90925ZM2.44405 4.61008H11.84C11.9526 4.61008 12.0605 4.65493 12.14 4.73476C12.2196 4.81459 12.2642 4.92287 12.2642 5.03577C12.2642 5.14867 12.2196 5.25695 12.14 5.33678C12.0605 5.41661 11.9526 5.46146 11.84 5.46146H2.44405C2.33154 5.46146 2.22362 5.41661 2.14406 5.33678C2.06451 5.25695 2.01985 5.14867 2.01985 5.03577C2.01985 4.92287 2.06451 4.81459 2.14406 4.73476C2.22362 4.65493 2.33154 4.61008 2.44405 4.61008V4.61008ZM5.15183 12.4597C5.15183 12.6727 5.06753 12.877 4.91744 13.0276C4.76736 13.1782 4.56381 13.2628 4.35156 13.2628H2.89233C2.68008 13.2628 2.47653 13.1782 2.32645 13.0276C2.17636 12.877 2.09206 12.6727 2.09206 12.4597V10.9713C2.09285 10.7588 2.17748 10.5553 2.32748 10.4054C2.47748 10.2554 2.6806 10.1712 2.89233 10.1712H4.37256C4.5843 10.1712 4.78742 10.2554 4.93742 10.4054C5.08742 10.5553 5.17212 10.7588 5.17291 10.9713L5.15183 12.4597ZM5.15183 8.90925C5.15183 9.12224 5.06753 9.32651 4.91744 9.47712C4.76736 9.62773 4.56381 9.71233 4.35156 9.71233H2.89233C2.68008 9.71233 2.47653 9.62773 2.32645 9.47712C2.17636 9.32651 2.09206 9.12224 2.09206 8.90925V7.42387C2.09206 7.21088 2.17636 7.00661 2.32645 6.856C2.47653 6.7054 2.68008 6.62079 2.89233 6.62079H4.37256C4.58482 6.62079 4.78844 6.7054 4.93852 6.856C5.08861 7.00661 5.17291 7.21088 5.17291 7.42387L5.15183 8.90925Z" fill="#EAEAEA"/>
</svg>
