<svg width="105" height="105" viewBox="0 0 105 105" fill="none" xmlns="http://www.w3.org/2000/svg">
<ellipse cx="52.5" cy="52.5" rx="42.5" ry="41.5" fill="#CF6D38"/>
<g filter="url(#filter0_d_4_143)">
<path d="M10.6245 46.749L68.8978 90.8597C75.7244 88.0999 81.7098 83.6013 86.2588 77.8111L18.9788 26.8896C14.4838 32.6524 11.6006 39.506 10.6245 46.749Z" fill="#A83063"/>
<path d="M18.979 26.8101L86.259 77.7315C90.7662 71.9562 93.6551 65.0853 94.6292 57.8244L36.356 13.7773C29.5117 16.5292 23.5168 21.0419 18.979 26.8578" fill="#BA474D"/>
<path d="M36.356 13.6662L94.6292 57.8246C95.6128 50.5202 94.6318 43.0855 91.7873 36.2862C88.9429 29.4868 84.3376 23.5684 78.4457 19.1402C72.5108 14.6486 65.5076 11.7814 58.1268 10.8215C50.7459 9.86158 43.2424 10.842 36.356 13.6662Z" fill="#CF6D38"/>
<path d="M26.8082 85.4653C32.7519 89.941 39.7585 92.792 47.1385 93.7379C54.5185 94.6837 62.0177 93.6918 68.898 90.8598L10.6247 46.749C9.64364 54.058 10.6256 61.4963 13.4697 68.3003C16.3137 75.1043 20.9175 81.0287 26.8082 85.4653Z" fill="#942657"/>
<path opacity="0.41" d="M28.5424 40.56C28.953 39.9539 29.1522 39.2293 29.109 38.4985C29.0659 37.7677 28.7828 37.0716 28.3037 36.5181C27.9817 36.1519 27.585 35.8588 27.1404 35.6585C26.6958 35.4581 26.2135 35.3551 25.7258 35.3564C24.9145 35.3494 24.1283 35.6379 23.5139 36.168C23.2842 36.3575 23.0808 36.5769 22.9092 36.8204C19.8505 41.4379 18.1672 46.8298 18.0558 52.3674C18.0111 54.4164 18.1818 56.4645 18.565 58.4779C18.7244 59.2554 19.1503 59.9528 19.7691 60.4496C20.388 60.9464 21.161 61.2115 21.9545 61.1991C22.1713 61.2226 22.3901 61.2226 22.6069 61.1991L22.957 61.1195C23.6361 60.907 24.2302 60.4843 24.6536 59.9123C25.0769 59.3402 25.3075 58.6485 25.3121 57.9369C25.3356 57.7467 25.3356 57.5543 25.3121 57.364C24.2132 51.5719 25.4117 45.5794 28.6538 40.6554L28.5424 40.56ZM40.0475 28.2911C39.8295 27.6178 39.4044 27.0307 38.8329 26.6135C38.2613 26.1962 37.5725 25.9703 36.8649 25.9678C36.5152 25.9685 36.1673 26.0167 35.8306 26.111L35.4168 26.2701L34.4302 26.7634C34.0363 26.9607 33.6855 27.2343 33.3982 27.5682C33.1109 27.9022 32.8928 28.29 32.7566 28.709C32.6203 29.128 32.5687 29.5698 32.6047 30.0089C32.6407 30.448 32.7636 30.8756 32.9662 31.2668C33.087 31.4933 33.231 31.7066 33.3959 31.9033C33.7161 32.2781 34.1138 32.5789 34.5617 32.785C35.0095 32.9911 35.4967 33.0974 35.9897 33.0968C36.5444 33.1104 37.0929 32.9787 37.581 32.7149L38.3448 32.3648C39.087 32.0198 39.6768 31.4146 40.0024 30.6637C40.328 29.9128 40.3667 29.0686 40.1112 28.2911" fill="white"/>
</g>
<defs>
<filter id="filter0_d_4_143" x="0.255371" y="0.463867" width="104.745" height="103.622" filterUnits="userSpaceOnUse" color-interpolation-filters="sRGB">
<feFlood flood-opacity="0" result="BackgroundImageFix"/>
<feColorMatrix in="SourceAlpha" type="matrix" values="0 0 0 0 0 0 0 0 0 0 0 0 0 0 0 0 0 0 127 0" result="hardAlpha"/>
<feOffset/>
<feGaussianBlur stdDeviation="5"/>
<feColorMatrix type="matrix" values="0 0 0 0 0 0 0 0 0 0 0 0 0 0 0 0 0 0 0.4 0"/>
<feBlend mode="normal" in2="BackgroundImageFix" result="effect1_dropShadow_4_143"/>
<feBlend mode="normal" in="SourceGraphic" in2="effect1_dropShadow_4_143" result="shape"/>
</filter>
</defs>
</svg>
